<svg width="568" height="480" viewBox="0 0 568 480" fill="none" xmlns="http://www.w3.org/2000/svg">
<path d="M538.1 301.411C537.901 304.936 537.873 308.553 537.901 312.24C537.901 312.356 537.901 312.496 537.901 312.611C537.901 313.98 537.93 315.348 537.958 316.739C537.958 316.902 537.958 317.041 537.958 317.203V317.249C537.958 317.389 537.958 317.505 537.958 317.644C537.958 317.713 537.958 317.76 537.958 317.829C537.958 318.131 537.958 318.432 537.986 318.757V318.803C537.986 319.29 538.015 319.777 538.015 320.264C538.043 322.073 538.071 323.905 538.071 325.737C538.071 326.27 538.071 326.78 538.071 327.314C538.071 327.894 538.071 328.45 538.071 329.03C538.071 329.285 538.071 329.54 538.071 329.795C538.043 330.885 538.043 331.975 537.986 333.042C537.958 334.247 537.873 335.453 537.816 336.682C537.76 337.517 537.703 338.375 537.618 339.21C537.533 340.323 537.391 341.46 537.249 342.573C537.079 343.825 536.909 345.1 536.682 346.353C535.86 350.944 534.613 355.489 532.685 359.895C532.062 361.333 531.353 362.771 530.588 364.162C529.766 365.646 528.858 367.084 527.866 368.522C526.335 370.748 524.578 372.882 522.537 374.992C522.197 375.34 521.857 375.687 521.488 376.035C521.034 376.476 520.581 376.917 520.099 377.357C519.702 377.705 519.334 378.053 518.937 378.401C517.604 379.56 516.244 380.65 514.826 381.67C513.211 382.853 511.538 383.943 509.809 384.963C509.242 385.288 508.675 385.613 508.108 385.937C507.484 386.285 506.861 386.61 506.209 386.958C505.982 387.074 505.727 387.213 505.472 387.329C505.103 387.514 504.735 387.7 504.338 387.885C503.827 388.14 503.317 388.372 502.807 388.604C502.438 388.79 502.07 388.952 501.701 389.114C501.475 389.23 501.219 389.323 500.993 389.416C500.369 389.694 499.745 389.949 499.122 390.204C498.045 390.645 496.939 391.062 495.833 391.48C492.744 392.616 489.54 393.636 486.252 394.517C482.141 395.654 477.889 396.605 473.581 397.416C469.895 398.112 466.125 398.738 462.355 399.248C459.804 399.619 457.252 399.944 454.701 400.245C447.642 401.08 440.584 401.753 433.695 402.402C425.503 403.167 417.566 403.933 410.224 404.953C409.628 405.022 409.061 405.115 408.494 405.185C403.959 405.857 399.678 406.646 395.71 407.596C394.774 407.828 393.867 408.06 392.96 408.315C392.138 408.547 391.316 408.779 390.494 409.057C389.388 409.382 388.282 409.776 387.177 410.171C386.638 410.356 386.1 410.542 385.589 410.75C383.804 411.423 382.018 412.165 380.203 412.953C379.296 413.348 378.389 413.742 377.454 414.182C377.085 414.345 376.688 414.53 376.32 414.716C367.163 418.983 357.582 424.363 347.207 429.673C338.277 434.241 328.752 438.763 318.462 442.427C301.227 448.596 281.78 452.422 259.102 450.335C254.34 449.894 249.861 449.036 245.609 447.877C240.563 446.486 235.857 444.677 231.492 442.59C223.413 438.717 216.411 433.963 210.259 429.372C204.108 424.803 198.807 420.444 194.101 417.383C193.506 416.988 192.939 416.64 192.372 416.293C191.011 415.481 189.48 414.855 187.808 414.345C187.071 414.113 186.306 413.927 185.54 413.765C183.187 413.255 180.636 412.953 177.886 412.745C176.639 412.652 175.335 412.582 174.003 412.536C172.444 412.466 170.828 412.42 169.155 412.374C163.231 412.211 156.824 412.095 150.162 411.353C149.454 411.284 148.773 411.191 148.065 411.098C146.902 410.936 145.74 410.773 144.549 410.565C144.294 410.518 144.039 410.472 143.784 410.426C138.71 409.498 133.551 408.107 128.476 405.927C126.861 405.254 125.273 404.489 123.686 403.631C122.892 403.214 122.126 402.773 121.333 402.309C120.794 402.008 120.256 401.66 119.689 401.312C119.49 401.196 119.32 401.08 119.122 400.964C118.3 400.431 117.506 399.897 116.74 399.341C115.663 398.576 114.671 397.787 113.736 396.976C112.828 396.21 112.006 395.445 111.213 394.657C109.682 393.103 108.35 391.526 107.216 389.926C106.734 389.253 106.308 388.581 105.883 387.908C102.113 381.624 101.007 375.015 100.922 368.429C100.922 368.313 100.922 368.22 100.922 368.104C100.922 367.664 100.922 367.223 100.922 366.759C100.922 365.6 100.979 364.464 101.007 363.327C101.036 362.887 101.036 362.469 101.064 362.029C101.206 359.339 101.433 356.695 101.631 354.075C101.659 353.704 101.688 353.333 101.716 352.962C101.83 351.269 101.915 349.622 101.943 347.976C101.943 347.187 101.943 346.422 101.943 345.634C101.915 344.103 101.801 342.573 101.603 341.112C101.064 337.077 99.8169 333.32 97.2089 330.004C81.9295 310.408 68.6628 309.713 58.6561 295.451C58.486 295.219 58.3159 294.964 58.1459 294.709C56.3033 291.973 54.574 288.726 52.9582 284.807C52.8732 284.598 52.7881 284.39 52.7031 284.181C51.0306 280.007 51.4558 276.134 53.0716 272.354C53.7236 270.847 54.574 269.34 55.5662 267.809C55.793 267.438 56.0481 267.09 56.3033 266.719C59.4215 262.22 63.6169 257.652 67.5006 252.573C67.784 252.226 68.0392 251.878 68.2943 251.507C70.8456 248.075 73.2268 244.411 74.9844 240.376C78.5278 232.236 79.605 222.659 74.6725 210.6C68.0108 194.298 70.5621 174.749 79.1231 158.446C79.3499 158.029 79.5483 157.612 79.7751 157.217C80.0019 156.777 80.257 156.359 80.5121 155.942C80.6822 155.617 80.8807 155.293 81.0791 154.991C81.5894 154.11 82.128 153.252 82.6949 152.394C83.2335 151.559 83.8005 150.724 84.3958 149.913C86.6636 146.759 89.1582 143.814 91.8795 141.124C92.078 140.915 92.2764 140.73 92.4748 140.544C94.4875 138.596 96.6136 136.81 98.8247 135.164C99.3066 134.816 99.8169 134.445 100.299 134.12C105.486 130.549 111.184 127.906 117.279 126.445C123.657 124.937 129.355 124.033 134.656 123.546C158.1 121.32 173.152 126.607 198.75 117.725C204.873 115.615 209.947 112.716 214.398 109.354C233.193 95.1154 240.251 72.5518 262.334 65.2239C286.826 57.1075 314.72 69.3516 341.027 72.1112C345.903 72.6214 350.75 72.8301 355.484 72.5054C366.625 71.7402 377.17 69.3285 387.375 66.8935L391.599 65.8964C394.434 65.2239 397.212 64.5746 400.018 63.9716C402.882 63.3687 405.688 62.789 408.523 62.3252C422.895 59.9366 436.984 59.9366 451.611 67.3573C481.036 82.2683 466.409 108.519 483.077 126.63C486.309 130.132 489.852 133.077 493.651 135.697C499.547 139.756 505.982 142.979 512.559 146.133C513.069 146.365 513.579 146.62 514.089 146.875C515.025 147.315 515.96 147.756 516.896 148.22C517.349 148.428 517.775 148.637 518.228 148.846C535.18 156.962 552.217 165.96 562.365 188.431C563.187 190.216 563.953 192.095 564.662 194.066C578.977 233.28 542.891 260.69 538.497 296.1C538.355 297.84 538.185 299.625 538.1 301.411Z" fill="#00365D"/>
<path d="M406.042 324.917L418.204 329.049L423.578 321.598L426.158 314.002L425.334 312.167L415.724 305.256L417.259 300.737L416.964 299.082L413.673 298.983L408.822 313.26L405.211 307.476L402.974 308.378L406.042 324.917Z" fill="white"/>
<path d="M424.916 310.488C424.513 310.351 424.1 310.305 423.699 310.337C423.639 309.121 422.857 308.007 421.643 307.595C421.191 307.441 420.728 307.401 420.284 307.459C420.118 306.367 419.369 305.403 418.259 305.026C417.932 304.915 417.6 304.864 417.273 304.866L418.359 301.669C418.903 300.068 418.052 298.326 416.461 297.785C414.871 297.245 413.135 298.108 412.591 299.709L408.683 311.213L407.413 308.131C407.404 308.11 407.395 308.089 407.385 308.068C407.025 307.337 406.402 306.788 405.631 306.522C405.626 306.52 405.621 306.518 405.616 306.517C404.845 306.255 404.023 306.307 403.298 306.665C402.02 307.295 401.486 308.693 401.834 310.501C402.283 312.84 402.868 315.101 403.384 317.096C403.761 318.553 404.117 319.93 404.341 321.045C404.535 322.011 404.888 325.054 404.892 325.084C404.938 325.48 405.207 325.813 405.584 325.941L417.916 330.131C418.34 330.275 418.808 330.129 419.075 329.77C419.548 329.133 423.72 323.477 424.552 321.028L426.814 314.372C427.357 312.77 426.506 311.028 424.916 310.488ZM422.997 313.075C423.176 312.549 423.74 312.264 424.254 312.439C424.768 312.613 425.041 313.183 424.863 313.709L422.601 320.365C422.048 321.993 419.311 325.943 417.864 327.937L406.861 324.199C406.743 323.221 406.514 321.404 406.361 320.639C406.126 319.469 405.763 318.065 405.379 316.579C404.87 314.615 404.294 312.387 403.857 310.112C403.742 309.518 403.711 308.758 404.209 308.513C404.441 308.398 404.706 308.386 404.959 308.469C405.204 308.554 405.404 308.725 405.524 308.953L407.824 314.534C407.987 314.931 408.38 315.185 408.808 315.171C409.238 315.158 409.613 314.879 409.751 314.473L414.542 300.372C414.721 299.846 415.284 299.561 415.799 299.736C416.313 299.911 416.587 300.481 416.408 301.006L413.314 310.112C413.131 310.651 413.42 311.236 413.958 311.419C414.497 311.602 415.082 311.314 415.265 310.775L416.34 307.612C416.518 307.087 417.082 306.802 417.596 306.976C418.11 307.151 418.384 307.721 418.205 308.246L416.698 312.681C416.515 313.22 416.804 313.805 417.342 313.988C417.881 314.171 418.466 313.883 418.649 313.344L419.723 310.182C419.902 309.656 420.466 309.371 420.98 309.545C421.494 309.72 421.768 310.29 421.589 310.816L420.082 315.251C419.899 315.789 420.188 316.375 420.726 316.557C421.265 316.741 421.85 316.452 422.033 315.913L422.997 313.075L422.997 313.075Z" fill="#111111"/>
<path d="M155.177 157.011L143.971 174.661C142.696 176.67 143.334 179.362 145.374 180.657C147.426 181.96 150.134 181.393 151.41 179.384L162.616 161.733L155.177 157.011Z" fill="#FFFDF2"/>
<path d="M145.949 179.78C144.393 178.792 143.911 176.749 144.874 175.233L152.454 163.293L158.089 166.871L150.508 178.81C149.538 180.339 147.505 180.768 145.949 179.78Z" fill="#ED3431"/>
<path d="M146.678 176.378L154.258 164.439L152.454 163.293L144.874 175.233C143.903 176.762 144.393 178.792 145.949 179.78C146.263 179.979 146.595 180.12 146.947 180.201C146.048 179.134 145.908 177.591 146.678 176.378Z" fill="#F17492"/>
<path d="M162.532 161.981L154.989 157.192C154.662 156.984 154.556 156.545 154.765 156.216L155.118 155.66C155.326 155.332 155.769 155.241 156.096 155.448L163.639 160.237C163.966 160.445 164.072 160.884 163.864 161.213L163.511 161.769C163.302 162.097 162.872 162.197 162.532 161.981Z" fill="#FFFDF2"/>
<path d="M156.382 163.608C156.276 163.629 156.161 163.609 156.056 163.543L154.357 162.464C154.161 162.339 154.095 162.067 154.215 161.878C154.336 161.688 154.597 161.624 154.806 161.756L156.506 162.835C156.702 162.96 156.767 163.232 156.647 163.421C156.583 163.523 156.487 163.586 156.382 163.608Z" fill="#035C5D"/>
<path d="M165.977 163.867L154.771 181.517C153.495 183.526 154.134 186.219 156.173 187.513C158.226 188.816 160.934 188.249 162.21 186.24L173.415 168.59L165.977 163.867Z" fill="#FFFDF2"/>
<path d="M156.734 186.628C155.178 185.64 154.696 183.597 155.659 182.081L160.448 174.538L166.082 178.115L161.293 185.658C160.336 187.195 158.29 187.616 156.734 186.628Z" fill="#FAAC48"/>
<path d="M157.463 183.226L162.252 175.683L160.448 174.538L155.659 182.081C154.688 183.61 155.178 185.64 156.734 186.628C157.048 186.827 157.381 186.968 157.732 187.049C156.846 185.99 156.693 184.439 157.463 183.226Z" fill="#FACB91"/>
<path d="M173.332 168.836L165.788 164.047C165.461 163.84 165.355 163.4 165.564 163.072L165.917 162.516C166.125 162.187 166.568 162.096 166.895 162.304L174.438 167.093C174.765 167.3 174.871 167.74 174.663 168.068L174.31 168.624C174.101 168.953 173.658 169.044 173.332 168.836Z" fill="#FFFDF2"/>
<path d="M167.167 170.455C167.061 170.476 166.946 170.456 166.841 170.39L165.142 169.311C164.946 169.186 164.88 168.914 165 168.725C165.121 168.535 165.382 168.47 165.591 168.603L167.29 169.682C167.487 169.807 167.552 170.079 167.432 170.268C167.368 170.37 167.272 170.433 167.167 170.455Z" fill="#035C5D"/>
<path d="M176.761 170.714L165.556 188.365C164.28 190.374 164.919 193.066 166.972 194.369C169.024 195.672 171.732 195.105 173.008 193.096L184.213 175.445L176.761 170.714Z" fill="#FFFDF2"/>
<path d="M167.532 193.484C165.977 192.497 165.495 190.453 166.457 188.937L175.714 174.357L181.349 177.934L172.092 192.514C171.121 194.043 169.088 194.472 167.532 193.484Z" fill="#3A80C2"/>
<path d="M168.261 190.083L177.518 175.502L175.714 174.357L166.457 188.937C165.487 190.466 165.977 192.497 167.532 193.484C167.846 193.684 168.179 193.824 168.531 193.905C167.631 192.838 167.491 191.296 168.261 190.083Z" fill="#66B0DA"/>
<path d="M184.116 175.684L176.573 170.895C176.246 170.688 176.14 170.248 176.349 169.92L176.702 169.364C176.91 169.035 177.353 168.944 177.68 169.152L185.223 173.941C185.55 174.148 185.656 174.588 185.448 174.917L185.095 175.472C184.886 175.801 184.456 175.9 184.116 175.684Z" fill="#FFFDF2"/>
<path d="M177.967 177.31C177.861 177.332 177.746 177.311 177.641 177.245L175.942 176.166C175.745 176.042 175.68 175.769 175.8 175.58C175.92 175.39 176.182 175.326 176.391 175.458L178.09 176.537C178.286 176.662 178.352 176.934 178.232 177.124C178.168 177.225 178.072 177.288 177.967 177.31Z" fill="#035C5D"/>
<path d="M187.396 181.756L148.006 156.748L146.883 158.517L186.273 183.525L187.396 181.756Z" fill="#FAAC48"/>
<path d="M152.728 153.329L150.911 152.176L134.259 178.405L136.076 179.559L152.728 153.329Z" fill="#FAAC48"/>
<path d="M190.313 177.191L188.496 176.038L171.844 202.267L173.661 203.421L190.313 177.191Z" fill="#FAAC48"/>
<path d="M176.493 202.718L133.677 175.535L132.546 177.317L175.362 204.499L176.493 202.718Z" fill="#FAAC48"/>
<path d="M96.2039 340.265L83.8517 335.262C83.4399 335.096 83.1481 334.736 83.0804 334.285L81.1433 321.317C81.0686 320.884 81.2438 320.452 81.5988 320.193L92.014 312.227C92.351 311.961 92.836 311.895 93.2477 312.062L105.6 317.065C106.012 317.231 106.304 317.591 106.371 318.041L108.308 331.01C108.365 331.436 108.19 331.868 107.853 332.134L97.4377 340.1C97.0757 340.376 96.6157 340.432 96.2039 340.265ZM85.4249 333.281L96.4524 337.748L105.75 330.638L104.02 319.063L92.9922 314.597L83.6948 321.706L85.4249 333.281Z" fill="#FFFDF3"/>
<path d="M81.9253 322.318L69.5731 317.315C69.1614 317.149 68.8695 316.789 68.8018 316.338L66.8648 303.37C66.808 302.944 66.9832 302.512 67.3202 302.246L77.7354 294.28C78.0725 294.014 78.5574 293.948 78.9691 294.115L91.3214 299.118C91.7331 299.284 92.025 299.644 92.0927 300.095L94.0297 313.063C94.1044 313.496 93.9292 313.928 93.5743 314.187L83.1591 322.153C82.8041 322.412 82.3371 322.485 81.9253 322.318ZM71.1463 315.335L82.1738 319.801L91.4713 312.691L89.7411 301.116L78.7136 296.65L69.4162 303.759L71.1463 315.335Z" fill="#FFFDF3"/>
<path d="M73.4612 343.217L61.109 338.215C60.6973 338.048 60.4054 337.688 60.3377 337.238L58.4007 324.27C58.3439 323.844 58.519 323.411 58.8561 323.145L69.2713 315.179C69.6084 314.913 70.0933 314.848 70.505 315.014L82.8573 320.017C83.269 320.184 83.5609 320.544 83.6286 320.994L85.5656 333.962C85.6403 334.395 85.4651 334.828 85.1102 335.087L74.695 343.053C74.333 343.329 73.873 343.384 73.4612 343.217ZM62.6822 336.234L73.7097 340.7L83.0071 333.591L81.277 322.015L70.2495 317.549L60.9521 324.659L62.6822 336.234Z" fill="#FFFDF3"/>
<path d="M106.164 315.622C104.696 315.028 103.02 315.718 102.439 317.154C101.857 318.59 102.58 320.253 104.048 320.847C105.516 321.442 107.192 320.751 107.773 319.315C108.362 317.862 107.632 316.217 106.164 315.622Z" fill="#FBBD6D"/>
<path d="M108.132 328.563C106.664 327.969 104.988 328.66 104.407 330.096C103.825 331.532 104.548 333.194 106.016 333.788C107.484 334.383 109.16 333.692 109.741 332.256C110.323 330.82 109.618 329.165 108.132 328.563Z" fill="#FBBD6D"/>
<path d="M83.4276 318.558C81.9597 317.964 80.2838 318.654 79.7022 320.09C79.7022 320.09 79.7022 320.09 79.6952 320.108C79.1137 321.544 79.8366 323.206 81.3046 323.8C82.7725 324.395 84.4484 323.704 85.03 322.268C85.03 322.268 85.03 322.268 85.037 322.251C85.6006 320.808 84.8956 319.153 83.4276 318.558Z" fill="#FBBD6D"/>
<path d="M97.6981 336.522C96.2302 335.927 94.5543 336.618 93.9727 338.054C93.3912 339.49 94.1141 341.152 95.5821 341.746C97.05 342.341 98.7259 341.65 99.3074 340.214C99.889 338.778 99.166 337.116 97.6981 336.522Z" fill="#FBBD6D"/>
<path d="M79.5695 292.689C78.1015 292.094 76.4256 292.785 75.8441 294.221C75.2625 295.657 75.9855 297.319 77.4535 297.914C78.9214 298.508 80.5973 297.818 81.1788 296.382C81.7674 294.928 81.0374 293.283 79.5695 292.689Z" fill="#FBBD6D"/>
<path d="M91.8849 297.675C90.417 297.08 88.7411 297.771 88.1595 299.207C87.578 300.643 88.3009 302.305 89.7689 302.9C91.2368 303.494 92.9127 302.803 93.4942 301.367C94.0649 299.907 93.3529 298.269 91.8849 297.675Z" fill="#FBBD6D"/>
<path d="M93.8539 310.617C92.3859 310.022 90.7101 310.713 90.1285 312.149C89.5469 313.585 90.2699 315.247 91.7379 315.842C93.2058 316.436 94.8817 315.746 95.4632 314.31C96.0448 312.874 95.3218 311.211 93.8539 310.617Z" fill="#FBBD6D"/>
<path d="M69.1317 300.605C67.6638 300.011 65.9879 300.702 65.4063 302.138C64.8248 303.574 65.5477 305.236 67.0157 305.83C68.4836 306.425 70.1595 305.734 70.741 304.298C71.3226 302.862 70.5996 301.2 69.1317 300.605Z" fill="#FBBD6D"/>
<path d="M71.1044 313.588C69.6364 312.994 67.9606 313.685 67.379 315.12C66.7974 316.556 67.5204 318.219 68.9884 318.813C70.4563 319.408 72.1322 318.717 72.7138 317.281C73.2953 315.845 72.5723 314.183 71.1044 313.588Z" fill="#FBBD6D"/>
<path d="M85.3898 331.515C83.9218 330.921 82.246 331.612 81.6644 333.047C81.6644 333.047 81.6644 333.047 81.6574 333.065C81.0758 334.501 81.7988 336.163 83.2667 336.757C84.7347 337.352 86.4106 336.661 86.9921 335.225C86.9921 335.225 86.9921 335.225 86.9991 335.208C87.5807 333.772 86.8577 332.11 85.3898 331.515Z" fill="#FBBD6D"/>
<path d="M60.6686 321.501C59.2006 320.907 57.5248 321.597 56.9432 323.033C56.3616 324.469 57.0846 326.131 58.5525 326.726C60.0204 327.321 61.6963 326.63 62.2779 325.194C62.8594 323.758 62.1365 322.096 60.6686 321.501Z" fill="#FBBD6D"/>
<path d="M62.6403 334.487C61.1723 333.892 59.4964 334.583 58.9149 336.019C58.3333 337.455 59.0563 339.117 60.5243 339.712C61.9922 340.306 63.6681 339.615 64.2497 338.179C64.8312 336.743 64.1082 335.081 62.6403 334.487Z" fill="#FBBD6D"/>
<path d="M74.9574 339.473C73.4895 338.879 71.8136 339.57 71.232 341.005C70.6505 342.441 71.3734 344.104 72.8414 344.698C74.3093 345.293 75.9852 344.602 76.5668 343.166C77.1304 341.723 76.4254 340.068 74.9574 339.473Z" fill="#FBBD6D"/>
<path d="M107.089 316.219C107.096 316.564 107.027 316.939 106.887 317.285C106.305 318.721 104.629 319.412 103.162 318.817C102.803 318.672 102.491 318.465 102.236 318.221C102.245 319.332 102.92 320.391 104.048 320.848C105.516 321.442 107.192 320.752 107.773 319.316C108.222 318.208 107.902 316.991 107.089 316.219Z" fill="black" fill-opacity="0.3"/>
<path d="M109.058 329.159C109.065 329.504 108.996 329.879 108.856 330.225C108.274 331.661 106.599 332.351 105.131 331.757C104.773 331.612 104.46 331.405 104.205 331.16C104.214 332.271 104.889 333.33 106.017 333.787C107.485 334.382 109.161 333.691 109.742 332.255C110.184 331.165 109.882 329.955 109.058 329.159Z" fill="black" fill-opacity="0.3"/>
<path d="M85.0184 322.243C85.4598 321.153 85.14 319.936 84.3275 319.164C84.3337 319.509 84.2651 319.884 84.125 320.23C84.125 320.23 84.125 320.23 84.118 320.247C83.5365 321.683 81.8606 322.374 80.3926 321.779C80.0346 321.634 79.7224 321.427 79.4672 321.183C79.4756 322.294 80.1512 323.353 81.279 323.81C82.7789 324.377 84.4299 323.696 85.0184 322.243Z" fill="black" fill-opacity="0.3"/>
<path d="M98.625 337.119C98.6312 337.464 98.5697 337.821 98.4295 338.167C97.848 339.603 96.1721 340.294 94.7042 339.699C94.3462 339.554 94.0341 339.347 93.7788 339.103C93.7872 340.214 94.4627 341.273 95.5905 341.73C97.0585 342.324 98.7343 341.634 99.3159 340.198C99.7503 339.125 99.4305 337.908 98.625 337.119Z" fill="black" fill-opacity="0.3"/>
<path d="M80.4939 293.284C80.5001 293.629 80.4316 294.004 80.2914 294.35C79.7099 295.786 78.034 296.477 76.5661 295.882C76.2081 295.737 75.896 295.53 75.6407 295.286C75.6491 296.397 76.3247 297.456 77.4525 297.913C78.9204 298.507 80.5963 297.817 81.1778 296.381C81.6263 295.273 81.3064 294.056 80.4939 293.284Z" fill="black" fill-opacity="0.3"/>
<path d="M92.7933 298.266C92.7995 298.611 92.731 298.986 92.5908 299.332C92.0093 300.768 90.3334 301.458 88.8654 300.864C88.5074 300.719 88.1953 300.512 87.94 300.267C87.9485 301.378 88.624 302.437 89.7518 302.894C91.2198 303.489 92.8957 302.798 93.4772 301.362C93.9257 300.255 93.6238 299.045 92.7933 298.266Z" fill="black" fill-opacity="0.3"/>
<path d="M94.7784 311.214C94.7846 311.559 94.716 311.934 94.5759 312.28C93.9943 313.716 92.3185 314.406 90.8505 313.812C90.4925 313.667 90.1804 313.46 89.9251 313.216C89.9336 314.327 90.6091 315.386 91.7369 315.842C93.2049 316.437 94.8807 315.746 95.4623 314.31C95.9107 313.203 95.5909 311.986 94.7784 311.214Z" fill="black" fill-opacity="0.3"/>
<path d="M70.0562 301.202C70.0624 301.547 69.9939 301.922 69.8538 302.268C69.2722 303.704 67.5963 304.394 66.1284 303.8C65.7703 303.655 65.4582 303.448 65.2029 303.203C65.2114 304.314 65.8869 305.373 67.0148 305.83C68.4827 306.425 70.1586 305.734 70.7402 304.298C71.1886 303.191 70.8867 301.981 70.0562 301.202Z" fill="black" fill-opacity="0.3"/>
<path d="M72.0298 314.184C72.036 314.528 71.9675 314.903 71.8273 315.25C71.2458 316.685 69.5699 317.376 68.102 316.782C67.7439 316.637 67.4318 316.43 67.1766 316.185C67.185 317.296 67.8605 318.355 68.9883 318.812C70.4563 319.407 72.1321 318.716 72.7137 317.28C73.1551 316.19 72.8353 314.973 72.0298 314.184Z" fill="black" fill-opacity="0.3"/>
<path d="M86.9991 335.209C87.4405 334.119 87.1207 332.902 86.3082 332.13C86.3144 332.475 86.2458 332.85 86.1057 333.196C86.1057 333.196 86.1057 333.196 86.0987 333.213C85.5171 334.649 83.8412 335.34 82.3733 334.745C82.0153 334.6 81.7032 334.394 81.4479 334.149C81.4563 335.26 82.1319 336.319 83.2597 336.776C84.7347 337.353 86.4105 336.662 86.9991 335.209C86.9921 335.227 86.9921 335.227 86.9991 335.209Z" fill="black" fill-opacity="0.3"/>
<path d="M61.5924 322.1C61.5986 322.445 61.53 322.82 61.3899 323.166C60.8083 324.602 59.1324 325.292 57.6645 324.698C57.3064 324.553 56.9943 324.346 56.7391 324.102C56.7475 325.213 57.4231 326.272 58.5509 326.728C60.0188 327.323 61.6947 326.632 62.2763 325.196C62.7177 324.106 62.4158 322.897 61.5924 322.1Z" fill="black" fill-opacity="0.3"/>
<path d="M63.5586 335.101C63.5648 335.445 63.4963 335.82 63.3561 336.166C62.7746 337.602 61.0987 338.293 59.6308 337.699C59.2727 337.554 58.9606 337.347 58.7054 337.102C58.7138 338.213 59.3893 339.272 60.5172 339.729C61.9851 340.324 63.661 339.633 64.2425 338.197C64.6909 337.09 64.3711 335.873 63.5586 335.101Z" fill="black" fill-opacity="0.3"/>
<path d="M75.858 340.08C75.8642 340.425 75.7957 340.8 75.6555 341.146C75.074 342.582 73.3981 343.273 71.9301 342.678C71.5721 342.533 71.26 342.326 71.0047 342.082C71.0132 343.193 71.6887 344.252 72.8165 344.709C74.2845 345.303 75.9604 344.613 76.5419 343.177C76.9904 342.07 76.6885 340.86 75.858 340.08Z" fill="black" fill-opacity="0.3"/>
<path fill-rule="evenodd" clip-rule="evenodd" d="M379.005 104.88L297.857 231.961L293.986 229.489L375.134 102.408L379.005 104.88Z" fill="#186398"/>
<path fill-rule="evenodd" clip-rule="evenodd" d="M297.857 231.961L179.197 87.2728L182.748 84.36L301.409 229.049L297.857 231.961Z" fill="#186398"/>
<path fill-rule="evenodd" clip-rule="evenodd" d="M297.857 240.383L175.369 409.569L171.648 406.876L294.136 237.689L297.857 240.383Z" fill="#186398"/>
<path fill-rule="evenodd" clip-rule="evenodd" d="M297.857 240.383L381.302 394.258L377.264 396.448L293.819 242.573L297.857 240.383Z" fill="#186398"/>
<path fill-rule="evenodd" clip-rule="evenodd" d="M297.857 240.383L473.167 257.225L472.728 261.797L297.417 244.955L297.857 240.383Z" fill="#186398"/>
<path d="M297.857 146.22L379.005 193.11V286.89L297.857 333.78L216.708 286.89V193.11L297.857 146.22Z" fill="#186398"/>
<path d="M401.206 0L462.45 35.4067V106.22L401.206 141.627L339.962 106.22V35.4067L401.206 0Z" fill="#186398"/>
<path d="M174.986 39.0431L216.708 62.9665V110.813L174.986 134.737L133.264 110.813V62.9665L174.986 39.0431Z" fill="#186398"/>
<path d="M158.909 248.804L179.197 260.478V283.828L158.909 295.502L138.622 283.828V260.478L158.909 248.804Z" fill="#186398"/>
<path d="M279.101 81.1483L299.388 92.823V116.172L279.101 127.847L258.814 116.172V92.823L279.101 81.1483Z" fill="#186398"/>
<path d="M278.718 352.153L289.436 358.278V370.526L278.718 376.651L268 370.526V358.278L278.718 352.153Z" fill="#186398"/>
<path d="M411.924 176.842L422.641 182.967V195.215L411.924 201.34L401.206 195.215V182.967L411.924 176.842Z" fill="#186398"/>
<path d="M175.369 338.373L236.613 373.78V444.593L175.369 480L114.125 444.593V373.78L175.369 338.373Z" fill="#186398"/>
<path d="M381.685 346.029L423.407 369.952V417.799L381.685 441.723L339.962 417.799V369.952L381.685 346.029Z" fill="#186398"/>
<path d="M473.551 208.995L515.273 232.919V280.766L473.551 304.689L431.828 280.766V232.919L473.551 208.995Z" fill="#186398"/>
<path fill-rule="evenodd" clip-rule="evenodd" d="M364.493 370.174H397.76C400.016 370.174 401.865 372.019 401.865 374.275V414.325C401.865 416.581 400.016 418.43 397.76 418.43H364.493C362.234 418.43 360.388 416.581 360.388 414.325V374.275C360.388 372.019 362.234 370.174 364.493 370.174Z" fill="#FAAC48"/>
<path fill-rule="evenodd" clip-rule="evenodd" d="M365.681 375.253H396.569C396.902 375.253 397.172 375.523 397.172 375.853V412.881C397.172 413.211 396.902 413.481 396.569 413.481H365.681C365.351 413.481 365.081 413.211 365.081 412.881V375.853C365.081 375.523 365.351 375.253 365.681 375.253Z" fill="#EDF3F4"/>
<path d="M372.59 384.742H370.879C370.46 384.742 370.121 384.402 370.121 383.982C370.121 383.563 370.46 383.223 370.879 383.223H372.59C373.009 383.223 373.349 383.563 373.349 383.982C373.349 384.402 373.009 384.742 372.59 384.742Z" fill="#9AAFB7"/>
<path d="M372.59 390.148H370.879C370.46 390.148 370.121 389.808 370.121 389.389C370.121 388.97 370.46 388.63 370.879 388.63H372.59C373.009 388.63 373.349 388.97 373.349 389.389C373.349 389.808 373.009 390.148 372.59 390.148Z" fill="#9AAFB7"/>
<path d="M372.59 395.553H370.879C370.46 395.553 370.121 395.213 370.121 394.794C370.121 394.375 370.46 394.035 370.879 394.035H372.59C373.009 394.035 373.349 394.375 373.349 394.794C373.349 395.213 373.009 395.553 372.59 395.553Z" fill="#9AAFB7"/>
<path d="M372.59 400.961H370.879C370.46 400.961 370.121 400.621 370.121 400.201C370.121 399.782 370.46 399.442 370.879 399.442H372.59C373.009 399.442 373.349 399.782 373.349 400.201C373.349 400.621 373.009 400.961 372.59 400.961Z" fill="#9AAFB7"/>
<path d="M372.59 406.364H370.879C370.46 406.364 370.121 406.024 370.121 405.605C370.121 405.186 370.46 404.846 370.879 404.846H372.59C373.009 404.846 373.349 405.186 373.349 405.605C373.349 406.024 373.009 406.364 372.59 406.364Z" fill="#9AAFB7"/>
<path d="M391.6 384.741H377.633C377.214 384.741 376.874 384.401 376.874 383.982C376.874 383.563 377.214 383.223 377.633 383.223H391.6C392.019 383.223 392.359 383.563 392.359 383.982C392.359 384.401 392.019 384.741 391.6 384.741Z" fill="#9AAFB7"/>
<path d="M391.6 390.148H377.633C377.214 390.148 376.874 389.808 376.874 389.389C376.874 388.97 377.214 388.63 377.633 388.63H391.6C392.019 388.63 392.359 388.97 392.359 389.389C392.359 389.808 392.019 390.148 391.6 390.148Z" fill="#9AAFB7"/>
<path d="M391.6 395.553H377.633C377.214 395.553 376.874 395.213 376.874 394.794C376.874 394.375 377.214 394.035 377.633 394.035H391.6C392.019 394.035 392.359 394.375 392.359 394.794C392.359 395.213 392.019 395.553 391.6 395.553Z" fill="#9AAFB7"/>
<path d="M391.6 400.961H377.633C377.214 400.961 376.874 400.621 376.874 400.201C376.874 399.782 377.214 399.442 377.633 399.442H391.6C392.019 399.442 392.359 399.782 392.359 400.201C392.359 400.621 392.019 400.961 391.6 400.961Z" fill="#9AAFB7"/>
<path d="M391.6 406.364H377.633C377.214 406.364 376.874 406.024 376.874 405.605C376.874 405.186 377.214 404.846 377.633 404.846H391.6C392.019 404.846 392.359 405.186 392.359 405.605C392.359 406.024 392.019 406.364 391.6 406.364Z" fill="#9AAFB7"/>
<path fill-rule="evenodd" clip-rule="evenodd" d="M393.621 375.853V412.881C393.621 413.211 393.352 413.481 393.019 413.481H396.569C396.902 413.481 397.172 413.211 397.172 412.881V375.853C397.172 375.523 396.902 375.253 396.569 375.253H393.019C393.351 375.253 393.621 375.523 393.621 375.853Z" fill="#D7E7EC"/>
<path d="M388.116 379.21H374.134C372.228 379.21 370.677 377.659 370.677 375.753V370.173C370.677 369.754 371.017 369.414 371.436 369.414H390.817C391.236 369.414 391.576 369.754 391.576 370.173V375.753C391.575 377.659 390.023 379.21 388.116 379.21ZM372.195 370.933V375.753C372.195 376.822 373.065 377.691 374.134 377.691H388.116C389.187 377.691 390.058 376.822 390.058 375.753V370.933H372.195Z" fill="#9AAFB7"/>
<path fill-rule="evenodd" clip-rule="evenodd" d="M376.327 368.107C375.19 368.107 374.26 369.037 374.26 370.174C374.26 371.31 375.19 372.237 376.327 372.237H386.066C387.203 372.237 388.133 371.31 388.133 370.174C388.133 369.037 387.203 368.107 386.066 368.107H376.327Z" fill="#B5C4CF"/>
<path fill-rule="evenodd" clip-rule="evenodd" d="M374.26 370.174C374.26 371.31 375.19 372.237 376.327 372.237H386.066C387.203 372.237 388.133 371.31 388.133 370.174H374.26Z" fill="#9AAFB7"/>
<path fill-rule="evenodd" clip-rule="evenodd" d="M397.161 374.275V375.745C397.169 375.779 397.172 375.816 397.172 375.854V412.882C397.172 412.919 397.169 412.956 397.161 412.991V414.325C397.161 416.581 395.315 418.43 393.056 418.43H397.76C400.017 418.43 401.865 416.581 401.865 414.325V374.275C401.865 372.019 400.017 370.174 397.76 370.174H393.056C395.315 370.174 397.161 372.019 397.161 374.275Z" fill="#E19B41"/>
<path d="M485.236 264.84H488.877V285.072H485.236V264.84Z" fill="white"/>
<path d="M478.348 264.84H481.99V285.072H478.348V264.84Z" fill="white"/>
<path d="M466.576 274.783L462.096 264.84H466.49L468.831 270.621L469.38 272.817L469.9 270.621L472.357 264.84H476.288L471.663 274.58L476.519 285.072H472.27L469.553 278.858L468.946 276.603L468.368 278.858L465.651 285.072H461.634L466.576 274.783Z" fill="white"/>
<path d="M495.205 247.508C495.205 247.104 495.07 246.766 494.8 246.497C494.55 246.208 494.222 245.947 493.817 245.716C493.413 245.466 492.979 245.215 492.517 244.965C492.074 244.714 491.65 244.406 491.245 244.04C490.84 243.674 490.503 243.23 490.233 242.71C489.983 242.19 489.858 241.535 489.858 240.745C489.858 239.396 490.224 238.355 490.956 237.623C491.688 236.891 492.767 236.525 494.193 236.525C495.041 236.525 495.841 236.621 496.592 236.814C497.344 236.987 497.941 237.209 498.384 237.479L497.575 240.138C497.209 239.984 496.765 239.839 496.245 239.704C495.725 239.55 495.214 239.473 494.713 239.473C493.769 239.473 493.297 239.868 493.297 240.658C493.297 241.024 493.422 241.332 493.673 241.583C493.943 241.814 494.28 242.045 494.684 242.277C495.089 242.508 495.513 242.749 495.956 242.999C496.419 243.25 496.852 243.568 497.257 243.953C497.661 244.319 497.989 244.772 498.24 245.312C498.509 245.851 498.644 246.516 498.644 247.306C498.644 248.635 498.24 249.705 497.43 250.514C496.621 251.323 495.417 251.728 493.817 251.728C493.027 251.728 492.247 251.632 491.476 251.439C490.725 251.246 490.118 250.996 489.655 250.688L490.609 247.913C491.014 248.144 491.476 248.346 491.996 248.52C492.536 248.693 493.095 248.78 493.673 248.78C494.116 248.78 494.482 248.684 494.771 248.491C495.06 248.279 495.205 247.951 495.205 247.508Z" fill="white"/>
<path d="M485.1 247.508C485.1 247.104 484.965 246.766 484.695 246.497C484.445 246.208 484.117 245.947 483.712 245.716C483.308 245.466 482.874 245.215 482.412 244.965C481.969 244.714 481.545 244.406 481.14 244.04C480.735 243.674 480.398 243.23 480.128 242.71C479.878 242.19 479.753 241.535 479.753 240.745C479.753 239.396 480.119 238.355 480.851 237.623C481.583 236.891 482.662 236.525 484.088 236.525C484.936 236.525 485.736 236.621 486.487 236.814C487.239 236.987 487.836 237.209 488.279 237.479L487.47 240.138C487.104 239.984 486.661 239.839 486.14 239.704C485.62 239.55 485.109 239.473 484.608 239.473C483.664 239.473 483.192 239.868 483.192 240.658C483.192 241.024 483.317 241.332 483.568 241.583C483.838 241.814 484.175 242.045 484.579 242.277C484.984 242.508 485.408 242.749 485.851 242.999C486.314 243.25 486.747 243.568 487.152 243.953C487.557 244.319 487.884 244.772 488.135 245.312C488.404 245.851 488.539 246.516 488.539 247.306C488.539 248.635 488.135 249.705 487.325 250.514C486.516 251.323 485.312 251.728 483.712 251.728C482.922 251.728 482.142 251.632 481.371 251.439C480.62 251.246 480.013 250.996 479.55 250.688L480.504 247.913C480.909 248.144 481.371 248.346 481.891 248.52C482.431 248.693 482.99 248.78 483.568 248.78C484.011 248.78 484.377 248.684 484.666 248.491C484.955 248.279 485.1 247.951 485.1 247.508Z" fill="white"/>
<path d="M468.335 237.768C468.913 237.421 469.635 237.142 470.503 236.93C471.37 236.718 472.352 236.612 473.451 236.612C475.089 236.612 476.225 237.036 476.861 237.884C477.516 238.731 477.844 239.936 477.844 241.496C477.844 242.402 477.815 243.298 477.757 244.184C477.719 245.052 477.69 245.909 477.671 246.757C477.651 247.585 477.661 248.395 477.699 249.185C477.757 249.956 477.892 250.688 478.104 251.381H475.301L474.751 249.618H474.636C474.327 250.177 473.894 250.64 473.335 251.006C472.776 251.372 472.073 251.555 471.225 251.555C470.088 251.555 469.192 251.179 468.537 250.428C467.882 249.657 467.554 248.636 467.554 247.364C467.554 245.63 468.171 244.396 469.404 243.664C470.637 242.932 472.304 242.624 474.405 242.739C474.501 241.622 474.424 240.812 474.173 240.311C473.942 239.81 473.431 239.56 472.641 239.56C472.063 239.56 471.466 239.627 470.849 239.762C470.233 239.897 469.684 240.09 469.202 240.34L468.335 237.768ZM472.468 248.607C472.988 248.607 473.412 248.481 473.74 248.231C474.067 247.961 474.308 247.672 474.462 247.364V244.965C474.019 244.907 473.595 244.897 473.191 244.936C472.786 244.975 472.429 245.061 472.121 245.196C471.813 245.331 471.562 245.533 471.37 245.803C471.196 246.054 471.11 246.381 471.11 246.786C471.11 247.383 471.225 247.836 471.456 248.144C471.707 248.453 472.044 248.607 472.468 248.607Z" fill="white"/>
<path d="M464.775 246.67C464.775 247.344 464.842 247.826 464.977 248.115C465.112 248.404 465.333 248.548 465.642 248.548C465.815 248.548 465.989 248.529 466.162 248.491C466.355 248.452 466.567 248.385 466.798 248.288L467.116 251.063C466.885 251.217 466.49 251.362 465.931 251.496C465.372 251.631 464.804 251.699 464.226 251.699C463.262 251.699 462.54 251.458 462.058 250.976C461.576 250.494 461.335 249.676 461.335 248.519V231.12H464.775V246.67Z" fill="white"/>
<path d="M459.599 250.542C459.098 250.966 458.424 251.275 457.576 251.467C456.747 251.66 455.919 251.756 455.09 251.756C454.05 251.756 453.077 251.583 452.171 251.236C451.285 250.87 450.504 250.273 449.83 249.444C449.155 248.616 448.626 247.527 448.24 246.178C447.855 244.829 447.662 243.172 447.662 241.207C447.662 239.164 447.874 237.469 448.298 236.12C448.741 234.771 449.31 233.702 450.003 232.911C450.716 232.102 451.526 231.534 452.431 231.206C453.337 230.879 454.252 230.715 455.177 230.715C456.121 230.715 456.94 230.792 457.634 230.946C458.347 231.1 458.925 231.274 459.368 231.466L458.645 234.675C458.279 234.482 457.846 234.337 457.345 234.241C456.863 234.125 456.285 234.068 455.611 234.068C454.281 234.068 453.26 234.646 452.547 235.802C451.834 236.958 451.477 238.769 451.477 241.236C451.477 242.295 451.554 243.269 451.709 244.155C451.882 245.022 452.142 245.773 452.489 246.409C452.855 247.045 453.308 247.537 453.847 247.883C454.406 248.23 455.071 248.404 455.842 248.404C456.516 248.404 457.094 248.317 457.576 248.144C458.058 247.951 458.491 247.729 458.877 247.479L459.599 250.542Z" fill="white"/>
<path d="M181.363 94.8909H184.758V113.751H181.363V94.8909Z" fill="white"/>
<path d="M170.389 104.16L166.213 94.8909H170.309L172.491 100.28L173.003 102.327L173.488 100.28L175.778 94.8909H179.442L175.131 103.971L179.658 113.751H175.697L173.165 107.959L172.599 105.857L172.06 107.959L169.527 113.751H165.782L170.389 104.16Z" fill="white"/>
<path d="M193.867 78.734C193.867 78.3568 193.741 78.0424 193.489 77.791C193.256 77.5215 192.95 77.279 192.573 77.0635C192.196 76.83 191.792 76.5964 191.361 76.3629C190.948 76.1294 190.552 75.842 190.175 75.5007C189.798 75.1594 189.484 74.7463 189.232 74.2613C188.999 73.7763 188.882 73.1656 188.882 72.4291C188.882 71.1718 189.223 70.2018 189.906 69.5192C190.588 68.8366 191.594 68.4954 192.924 68.4954C193.714 68.4954 194.459 68.5852 195.16 68.7648C195.86 68.9265 196.417 69.133 196.83 69.3845L196.076 71.8633C195.735 71.7196 195.322 71.5849 194.837 71.4592C194.352 71.3155 193.876 71.2436 193.409 71.2436C192.528 71.2436 192.088 71.6119 192.088 72.3483C192.088 72.6896 192.205 72.977 192.439 73.2105C192.69 73.4261 193.004 73.6416 193.382 73.8572C193.759 74.0727 194.154 74.2972 194.567 74.5308C194.998 74.7643 195.402 75.0607 195.78 75.4199C196.157 75.7612 196.462 76.1833 196.696 76.6863C196.947 77.1892 197.073 77.8089 197.073 78.5454C197.073 79.7848 196.696 80.7817 195.941 81.5361C195.187 82.2906 194.064 82.6678 192.573 82.6678C191.837 82.6678 191.109 82.578 190.391 82.3983C189.69 82.2187 189.124 81.9852 188.693 81.6978L189.583 79.1112C189.96 79.3267 190.391 79.5154 190.876 79.677C191.379 79.8387 191.9 79.9195 192.439 79.9195C192.852 79.9195 193.193 79.8297 193.462 79.6501C193.732 79.4525 193.867 79.1471 193.867 78.734Z" fill="white"/>
<path d="M184.447 78.734C184.447 78.3568 184.321 78.0424 184.069 77.791C183.836 77.5215 183.531 77.279 183.153 77.0635C182.776 76.83 182.372 76.5964 181.941 76.3629C181.528 76.1294 181.133 75.842 180.755 75.5007C180.378 75.1594 180.064 74.7463 179.812 74.2613C179.579 73.7763 179.462 73.1656 179.462 72.4291C179.462 71.1718 179.803 70.2018 180.486 69.5192C181.168 68.8366 182.174 68.4954 183.504 68.4954C184.294 68.4954 185.039 68.5852 185.74 68.7648C186.44 68.9265 186.997 69.133 187.41 69.3845L186.656 71.8633C186.315 71.7196 185.902 71.5849 185.417 71.4592C184.932 71.3155 184.456 71.2436 183.989 71.2436C183.108 71.2436 182.668 71.6119 182.668 72.3483C182.668 72.6896 182.785 72.977 183.019 73.2105C183.27 73.4261 183.584 73.6416 183.962 73.8572C184.339 74.0727 184.734 74.2972 185.147 74.5308C185.578 74.7643 185.982 75.0607 186.36 75.4199C186.737 75.7612 187.042 76.1833 187.276 76.6863C187.527 77.1892 187.653 77.8089 187.653 78.5454C187.653 79.7848 187.276 80.7817 186.521 81.5361C185.767 82.2906 184.644 82.6678 183.153 82.6678C182.417 82.6678 181.689 82.578 180.971 82.3983C180.27 82.2187 179.705 81.9852 179.273 81.6978L180.163 79.1112C180.54 79.3267 180.971 79.5154 181.456 79.677C181.959 79.8387 182.48 79.9195 183.019 79.9195C183.432 79.9195 183.773 79.8297 184.042 79.6501C184.312 79.4525 184.447 79.1471 184.447 78.734Z" fill="white"/>
<path d="M168.818 69.6542C169.357 69.3308 170.031 69.0704 170.839 68.8728C171.647 68.6752 172.563 68.5764 173.587 68.5764C175.114 68.5764 176.174 68.9716 176.767 69.7619C177.377 70.5523 177.683 71.6749 177.683 73.1299C177.683 73.9741 177.656 74.8094 177.602 75.6357C177.566 76.444 177.539 77.2433 177.521 78.0337C177.503 78.8061 177.512 79.5605 177.548 80.2969C177.602 81.0154 177.728 81.698 177.925 82.3447H175.312L174.8 80.7011H174.692C174.405 81.222 174 81.6531 173.48 81.9944C172.959 82.3357 172.303 82.5063 171.513 82.5063C170.453 82.5063 169.618 82.1561 169.007 81.4555C168.396 80.737 168.091 79.785 168.091 78.5995C168.091 76.9829 168.666 75.8333 169.815 75.1507C170.965 74.4681 172.519 74.1807 174.476 74.2885C174.566 73.2467 174.494 72.4922 174.261 72.0252C174.045 71.5582 173.569 71.3247 172.833 71.3247C172.294 71.3247 171.737 71.3875 171.162 71.5133C170.588 71.639 170.076 71.8186 169.627 72.0522L168.818 69.6542ZM172.671 79.7581C173.156 79.7581 173.551 79.6413 173.857 79.4078C174.162 79.1563 174.387 78.8869 174.53 78.5995V76.3632C174.117 76.3093 173.722 76.3003 173.345 76.3362C172.968 76.3721 172.635 76.453 172.348 76.5787C172.061 76.7044 171.827 76.8931 171.647 77.1445C171.486 77.378 171.405 77.6834 171.405 78.0606C171.405 78.6175 171.513 79.0396 171.728 79.327C171.962 79.6144 172.276 79.7581 172.671 79.7581Z" fill="white"/>
<path d="M165.5 77.9523C165.5 78.581 165.563 79.03 165.688 79.2995C165.814 79.5689 166.021 79.7036 166.308 79.7036C166.47 79.7036 166.631 79.6857 166.793 79.6497C166.973 79.6138 167.17 79.5509 167.386 79.4611L167.682 82.0477C167.467 82.1914 167.098 82.3261 166.578 82.4519C166.057 82.5776 165.527 82.6405 164.988 82.6405C164.09 82.6405 163.416 82.416 162.967 81.9669C162.518 81.5178 162.293 80.7544 162.293 79.6767V63.4565H165.5V77.9523Z" fill="white"/>
<path d="M160.675 81.5627C160.208 81.9579 159.579 82.2453 158.789 82.425C158.017 82.6046 157.244 82.6944 156.472 82.6944C155.502 82.6944 154.595 82.5327 153.751 82.2094C152.924 81.8681 152.197 81.3113 151.568 80.5389C150.939 79.7665 150.445 78.7516 150.086 77.4942C149.727 76.2369 149.547 74.6921 149.547 72.8599C149.547 70.9559 149.745 69.3752 150.14 68.1178C150.553 66.8605 151.083 65.8635 151.73 65.1271C152.394 64.3726 153.149 63.8428 153.993 63.5374C154.837 63.232 155.691 63.0793 156.553 63.0793C157.433 63.0793 158.196 63.1512 158.843 63.2949C159.508 63.4386 160.046 63.6003 160.46 63.7799L159.786 66.7706C159.445 66.591 159.041 66.4563 158.574 66.3665C158.124 66.2587 157.586 66.2048 156.957 66.2048C155.717 66.2048 154.765 66.7437 154.101 67.8214C153.436 68.8992 153.104 70.5877 153.104 72.8869C153.104 73.8748 153.176 74.7819 153.319 75.6082C153.481 76.4165 153.724 77.117 154.047 77.7098C154.388 78.3026 154.81 78.7606 155.313 79.0839C155.834 79.4073 156.454 79.5689 157.172 79.5689C157.801 79.5689 158.34 79.4881 158.789 79.3264C159.238 79.1468 159.642 78.9402 160.002 78.7067L160.675 81.5627Z" fill="white"/>
<path d="M148.336 252.033L150.056 253.041L153.051 264.217L157.221 279.781C158.03 282.797 160.34 284.015 162.69 283.386C165.04 282.756 166.45 280.614 165.623 277.529L161.453 261.966L158.459 250.79L159.088 249.152L148.336 252.033Z" fill="#EDE8D9"/>
<path d="M153.89 250.545L162.69 283.386C165.04 282.756 166.45 280.615 165.623 277.529L161.453 261.966L158.459 250.79L159.088 249.152L153.89 250.545Z" fill="#E3D9C3"/>
<path d="M162.471 282.562C160.62 283.058 158.704 282.175 158.006 279.57L154.075 264.897L160.839 263.085L164.771 277.757C165.54 280.343 164.394 282.047 162.471 282.562Z" fill="#55AED8"/>
<path d="M164.84 277.739L160.909 263.067L157.491 263.982L162.47 282.563C164.392 282.047 165.538 280.344 164.84 277.739Z" fill="#2764AF"/>
<path d="M153.432 246.551L152.293 246.856L159.237 272.772L160.377 272.467L153.432 246.551Z" fill="#7AB042"/>
<path d="M153.502 246.531L152.932 246.684L159.876 272.6L160.446 272.448L153.502 246.531Z" fill="#659C42"/>
<path d="M152.809 239.957C151.139 243.124 153.027 247.321 153.027 247.321C153.027 247.321 157.657 246.374 159.399 243.189C161.069 240.022 159.181 235.825 159.181 235.825C159.181 235.825 154.55 236.772 152.809 239.957Z" fill="#659C42"/>
<path d="M152.809 239.957C151.139 243.124 153.027 247.321 153.027 247.321L159.181 235.825C159.181 235.825 154.55 236.772 152.809 239.957Z" fill="#7AB042"/>
<path d="M150.049 242.756C152.61 244.054 153.28 247.695 153.28 247.695C153.28 247.695 149.777 249.148 147.217 247.85C144.656 246.552 143.985 242.911 143.985 242.911C143.985 242.911 147.488 241.458 150.049 242.756Z" fill="#7AB042"/>
<path d="M150.049 242.756C152.61 244.053 153.28 247.695 153.28 247.695L143.985 242.911C143.985 242.911 147.488 241.458 150.049 242.756Z" fill="#659C42"/>
<path d="M289.092 71.9589C288.264 69.0306 285.682 66.7488 282.418 66.4127C279.153 66.0766 276.16 67.7845 274.754 70.4829C272.44 70.2478 270.386 71.9663 270.295 74.2809C270.218 76.2336 271.638 77.9849 273.596 78.352C274.197 78.4644 274.785 78.4423 275.333 78.3106C275.34 78.32 275.346 78.3293 275.353 78.3386C276.919 80.4913 277.675 83.1072 277.404 85.7319L277.11 88.5894L283.096 89.2056L283.39 86.3481C283.66 83.7233 284.933 81.3164 286.904 79.5278C286.913 79.52 286.921 79.5122 286.93 79.5045C287.44 79.7453 288.011 79.8867 288.621 79.8988C290.614 79.9384 292.36 78.513 292.683 76.5856C293.065 74.3012 291.405 72.2001 289.092 71.9589Z" fill="white"/>
<path d="M289.094 71.9595C288.275 69.0619 285.738 66.7985 282.522 66.4258L280.207 88.9086L283.098 89.2062L283.392 86.3486C283.662 83.7239 284.935 81.3169 286.906 79.5283C286.915 79.5206 286.923 79.5127 286.932 79.505C287.442 79.7458 288.013 79.8873 288.623 79.8993C290.616 79.9389 292.362 78.5135 292.685 76.5861C293.067 74.3017 291.407 72.2007 289.094 71.9595Z" fill="#E0E0E0"/>
<path d="M272.688 68.1972C273.484 68.2792 274.195 67.7126 274.275 66.9316C274.356 66.1505 273.775 65.4509 272.979 65.3689C272.182 65.2869 271.471 65.8536 271.391 66.6346C271.31 67.4156 271.891 68.1152 272.688 68.1972Z" fill="white"/>
<path d="M292.275 70.4828C293.58 70.6171 294.744 69.6892 294.875 68.4103C295.007 67.1314 294.056 65.9858 292.752 65.8515C291.448 65.7173 290.283 66.6452 290.152 67.9241C290.02 69.203 290.971 70.3486 292.275 70.4828Z" fill="#E0E0E0"/>
<path d="M283.516 93.6623L284.589 83.2353L277.089 82.4631L276.015 92.8902C270.848 93.9327 266.747 98.1523 266.189 103.577C265.499 110.283 270.484 116.291 277.324 116.995C284.164 117.699 290.268 112.833 290.959 106.127C291.517 100.702 288.362 95.7357 283.516 93.6623Z" fill="#E1EFFA"/>
<path d="M267.912 102.776C267.815 103.196 267.743 103.626 267.698 104.065C267.093 109.937 271.458 115.196 277.446 115.812C283.434 116.429 288.778 112.169 289.383 106.298C289.428 105.858 289.445 105.422 289.436 104.991L267.912 102.776Z" fill="#ED3532"/>
<path d="M289.436 104.991L278.665 103.882L277.437 115.811C277.44 115.811 277.443 115.812 277.446 115.812C283.434 116.428 288.778 112.169 289.383 106.297C289.428 105.858 289.445 105.422 289.436 104.991Z" fill="#A31C35"/>
<path d="M285.975 83.1364L275.752 82.084L275.435 85.1684L285.658 86.2209L285.975 83.1364Z" fill="#C1DFF6"/>
<path d="M285.973 83.1381L280.853 82.6111L280.535 85.6955L285.655 86.2226L285.973 83.1381Z" fill="#A0CCEF"/>
<path d="M200.821 392.626C199.001 388.086 194.743 381.85 184.565 377.955L181.337 386.389C186.997 388.556 190.734 391.755 192.366 395.887C194.141 400.379 193.124 404.993 191.963 408.026C188.42 417.285 178.373 425.276 170.199 422.178L162.198 419.116L163.155 416.615L153.086 412.761L152.129 415.262L152.017 415.555L148.912 423.67L166.9 430.554L166.981 430.585C180.615 435.803 195.335 424.812 200.518 411.27C202.938 404.783 203.066 398.335 200.821 392.626Z" fill="#EDE8D9"/>
<path d="M166.696 416.413L150.531 410.226L150.002 411.61L166.167 417.796L166.696 416.413Z" fill="#492630"/>
<path d="M158.614 413.319L150.531 410.226L150.002 411.61L158.084 414.703L158.614 413.319Z" fill="#723417"/>
<path d="M176.248 445.173L180.128 435.036C182.266 429.448 180.143 423.42 175.38 421.597C170.618 419.775 165.023 422.819 162.874 428.433L158.995 438.57L138.911 430.884L136.325 437.642L180.574 454.576L183.16 447.818L176.248 445.173Z" fill="#ED3431"/>
<path d="M162.848 428.424L158.968 438.561L138.912 430.885L136.325 437.643L165.008 448.62L175.343 421.614C170.581 419.792 164.986 422.836 162.848 428.424Z" fill="#F76663"/>
<path d="M177.801 430.026C176.773 432.713 173.724 434.078 171.002 433.036C168.281 431.995 166.912 428.97 167.95 426.256C168.979 423.568 172.028 422.204 174.749 423.245C177.471 424.287 178.84 427.312 177.801 430.026Z" fill="#E3D9C3"/>
<path d="M170.976 433.027C168.254 431.985 166.885 428.96 167.924 426.246C168.952 423.559 172.001 422.194 174.723 423.235L170.976 433.027Z" fill="#EDE8D9"/>
<path d="M175.297 429.069C174.788 430.399 173.282 431.073 171.921 430.553C170.561 430.032 169.889 428.524 170.399 427.194C170.908 425.864 172.414 425.19 173.774 425.71C175.135 426.231 175.806 427.738 175.297 429.069Z" fill="#492630"/>
<path d="M171.921 430.553C170.561 430.032 169.889 428.524 170.399 427.194C170.908 425.864 172.414 425.19 173.774 425.71L171.921 430.553Z" fill="#723417"/>
<path d="M184.224 361.473L174.156 357.62L157.018 402.399L167.087 406.252L184.224 361.473Z" fill="#E3D9C3"/>
<path d="M179.19 359.547L174.156 357.62L157.018 402.399L162.053 404.326L179.19 359.547Z" fill="#EDE8D9"/>
<path d="M167.769 404.47L157.7 400.617L157.018 402.4L167.087 406.253L167.769 404.47Z" fill="#492630"/>
<path d="M162.735 402.544L157.7 400.617L157.018 402.4L162.053 404.326L162.735 402.544Z" fill="#723417"/>
<path d="M185.177 368.122L169.012 361.936L155.948 396.072L172.113 402.258L185.177 368.122Z" fill="#ED3431"/>
<path d="M177.095 365.029L169.012 361.936L155.948 396.072L164.031 399.165L177.095 365.029Z" fill="#F76663"/>
<path d="M172.591 401.009L156.426 394.823L155.958 396.046L172.123 402.233L172.591 401.009Z" fill="#492630"/>
<path d="M164.509 397.916L156.426 394.823L155.958 396.046L164.04 399.14L164.509 397.916Z" fill="#723417"/>
<path d="M185.566 383.157C184.446 386.084 181.145 387.535 178.179 386.4C175.24 385.275 173.751 381.991 174.871 379.064C175.991 376.138 179.292 374.686 182.231 375.811C185.198 376.946 186.676 380.257 185.566 383.157Z" fill="#E3D9C3"/>
<path d="M178.179 386.4C175.24 385.275 173.751 381.991 174.871 379.064C175.991 376.138 179.292 374.686 182.231 375.811L178.179 386.4Z" fill="#EDE8D9"/>
<path d="M182.848 382.115C182.298 383.552 180.653 384.265 179.211 383.713C177.741 383.15 177.019 381.532 177.569 380.095C178.119 378.658 179.764 377.946 181.206 378.498C182.676 379.06 183.398 380.679 182.848 382.115Z" fill="#492630"/>
<path d="M179.2 383.738C177.731 383.176 177.008 381.558 177.558 380.121C178.108 378.684 179.754 377.972 181.196 378.524L179.2 383.738Z" fill="#723417"/>
<path d="M344.277 252.919C344.277 251.592 343.883 250.473 343.096 249.561C342.308 248.607 341.313 247.716 340.111 246.887C338.95 246.058 337.665 245.208 336.255 244.337C334.887 243.467 333.602 242.451 332.4 241.29C331.239 240.129 330.265 238.761 329.477 237.186C328.69 235.611 328.296 233.683 328.296 231.403C328.296 229.289 328.607 227.506 329.229 226.055C329.892 224.563 330.783 223.361 331.903 222.448C333.022 221.495 334.348 220.811 335.882 220.396C337.416 219.94 339.054 219.712 340.795 219.712C342.909 219.712 344.878 219.92 346.702 220.334C348.526 220.749 350.039 221.308 351.242 222.013L348.817 228.916C348.112 228.418 347.055 227.962 345.645 227.548C344.277 227.133 342.785 226.926 341.168 226.926C339.551 226.926 338.307 227.257 337.437 227.921C336.566 228.584 336.131 229.558 336.131 230.843C336.131 232.004 336.525 233.04 337.313 233.952C338.1 234.823 339.074 235.673 340.235 236.502C341.437 237.331 342.723 238.202 344.091 239.114C345.5 239.984 346.785 241.021 347.946 242.223C349.148 243.384 350.143 244.772 350.931 246.389C351.718 247.965 352.112 249.851 352.112 252.048C352.112 254.245 351.781 256.152 351.117 257.769C350.495 259.386 349.583 260.733 348.381 261.811C347.22 262.847 345.811 263.635 344.153 264.174C342.494 264.713 340.65 264.982 338.618 264.982C336.048 264.982 333.789 264.733 331.84 264.236C329.933 263.739 328.462 263.179 327.425 262.557L329.975 255.53C330.804 256.028 331.944 256.525 333.395 257.023C334.846 257.52 336.4 257.769 338.059 257.769C342.204 257.769 344.277 256.152 344.277 252.919Z" fill="#472607"/>
<path d="M299.404 221.019C300.896 220.687 302.534 220.439 304.317 220.273C306.099 220.066 307.882 219.962 309.664 219.962C311.571 219.962 313.437 220.148 315.261 220.522C317.126 220.853 318.785 221.537 320.236 222.574C321.687 223.61 322.868 225.082 323.78 226.989C324.692 228.854 325.148 231.3 325.148 234.326C325.148 237.062 324.754 239.384 323.967 241.291C323.22 243.198 322.205 244.753 320.92 245.955C319.635 247.157 318.142 248.028 316.442 248.566C314.784 249.105 313.064 249.375 311.281 249.375C311.115 249.375 310.846 249.375 310.473 249.375C310.1 249.375 309.706 249.375 309.291 249.375C308.877 249.333 308.462 249.292 308.048 249.25C307.675 249.209 307.405 249.168 307.239 249.126V264.112H299.404V221.019ZM307.239 242.099C307.488 242.182 307.944 242.265 308.607 242.348C309.312 242.39 309.789 242.41 310.037 242.41C310.95 242.41 311.82 242.286 312.649 242.037C313.478 241.788 314.204 241.374 314.826 240.793C315.489 240.172 316.007 239.343 316.38 238.306C316.753 237.228 316.94 235.881 316.94 234.264C316.94 232.896 316.753 231.735 316.38 230.782C316.049 229.828 315.572 229.082 314.95 228.543C314.37 227.963 313.686 227.548 312.898 227.3C312.11 227.051 311.281 226.927 310.411 226.927C309.125 226.927 308.068 227.03 307.239 227.237V242.099Z" fill="#472607"/>
<path d="M285.849 254.286H275.589L273.039 264.111H265.266L277.889 220.272H284.046L296.731 264.111H288.523L285.849 254.286ZM277.268 247.819H284.481L281.994 237.683L280.999 230.843H280.75L279.693 237.745L277.268 247.819Z" fill="#472607"/>
<path d="M266.888 262.37C265.81 263.283 264.359 263.946 262.535 264.36C260.753 264.775 258.97 264.982 257.188 264.982C254.949 264.982 252.855 264.609 250.907 263.863C249 263.075 247.321 261.79 245.87 260.008C244.419 258.225 243.279 255.883 242.45 252.981C241.621 250.079 241.206 246.514 241.206 242.285C241.206 237.891 241.662 234.243 242.574 231.341C243.528 228.439 244.751 226.138 246.243 224.438C247.777 222.697 249.518 221.474 251.467 220.77C253.415 220.065 255.384 219.712 257.374 219.712C259.405 219.712 261.167 219.878 262.66 220.21C264.194 220.542 265.437 220.915 266.391 221.329L264.836 228.232C264.048 227.817 263.116 227.506 262.038 227.299C261.001 227.05 259.758 226.926 258.307 226.926C255.446 226.926 253.249 228.169 251.715 230.657C250.181 233.144 249.415 237.041 249.415 242.347C249.415 244.627 249.58 246.721 249.912 248.628C250.285 250.493 250.845 252.11 251.591 253.478C252.379 254.846 253.353 255.903 254.514 256.65C255.716 257.396 257.146 257.769 258.804 257.769C260.255 257.769 261.499 257.582 262.535 257.209C263.572 256.795 264.504 256.318 265.334 255.779L266.888 262.37Z" fill="#472607"/>
<path d="M407.505 92.1522C420.9 88.6184 428.894 74.8946 425.361 61.4993C421.827 48.104 408.103 40.1096 394.708 43.6435C381.312 47.1773 373.318 60.901 376.852 74.2964C380.386 87.6917 394.109 95.686 407.505 92.1522Z" fill="#145380"/>
<path d="M405.133 53.1054C393.267 49.8768 381.516 49.1808 373.701 51.2427C368.729 52.5543 365.651 54.8974 364.802 58.0181C364.172 60.332 364.825 62.8426 366.531 65.382C366.816 64.9842 367.142 64.6169 367.527 64.3044C366.174 62.2193 365.653 60.2019 366.147 58.3839C367.045 55.0828 370.944 53.4112 374.056 52.5901C381.646 50.5877 393.127 51.2833 404.767 54.449C423.718 59.6071 438.053 70.1212 436.07 77.4099C435.172 80.711 431.273 82.3826 428.161 83.2036C420.571 85.206 409.09 84.5107 397.45 81.3448C388.841 79.001 381.191 75.5524 375.585 71.8027C375.3 72.21 374.971 72.584 374.585 72.9039C380.285 76.75 388.078 80.2381 397.084 82.6885C408.95 85.9171 420.701 86.6131 428.517 84.551C433.488 83.2395 436.566 80.8963 437.415 77.7757C439.672 69.4816 425.491 58.6454 405.133 53.1054Z" fill="white"/>
<path d="M371.923 71.9932C373.783 71.5024 374.893 69.5963 374.403 67.7358C373.912 65.8754 372.006 64.765 370.145 65.2558C368.285 65.7467 367.174 67.6527 367.665 69.5132C368.156 71.3737 370.062 72.484 371.923 71.9932Z" fill="#ED3532"/>
<path fill-rule="evenodd" clip-rule="evenodd" d="M371.857 65.2544C372.243 65.6635 372.546 66.1605 372.7 66.7434C373.191 68.6041 372.081 70.5098 370.22 71.0008C369.638 71.1544 369.055 71.1364 368.509 71.0018C369.357 71.8999 370.645 72.33 371.923 71.9928C373.784 71.5018 374.894 69.5962 374.403 67.7354C374.066 66.4577 373.056 65.5488 371.857 65.2544Z" fill="#A31C35"/>
<path d="M372.1 72.6676C369.87 73.2556 367.579 71.9207 366.991 69.6916C366.403 67.4625 367.738 65.1708 369.967 64.5827C372.196 63.9947 374.487 65.3296 375.076 67.5587C375.664 69.7878 374.329 72.0795 372.1 72.6676ZM370.322 65.9302C368.836 66.3223 367.946 67.8505 368.338 69.3361C368.73 70.8217 370.258 71.7122 371.744 71.3201C373.23 70.928 374.12 69.3998 373.728 67.9142C373.336 66.4286 371.808 65.5381 370.322 65.9302Z" fill="white"/>
<path d="M414.553 99.203C413.454 101.175 412.049 102.484 410.35 102.932C403.046 104.859 392.643 90.444 387.633 71.4531C382.623 52.4624 384.562 34.7911 391.865 32.8643C399.168 30.9377 409.572 45.3529 414.582 64.3436C416.913 73.1772 417.737 81.7225 417.221 88.5329C417.72 88.5842 418.204 88.6987 418.665 88.8769C419.227 81.9303 418.371 73.2401 415.93 63.9882C410.548 43.5867 399.821 29.3242 391.51 31.5168C383.198 33.7095 380.903 51.4071 386.286 71.8086C391.668 92.2101 402.394 106.473 410.705 104.28C412.883 103.706 414.643 102.059 415.964 99.5866C415.473 99.5245 415.004 99.388 414.553 99.203Z" fill="white"/>
<path d="M417.545 97.4307C419.405 96.9399 420.516 95.0338 420.025 93.1733C419.534 91.3129 417.628 90.2025 415.767 90.6933C413.907 91.1842 412.797 93.0902 413.287 94.9507C413.778 96.8112 415.684 97.9215 417.545 97.4307Z" fill="#55AED8"/>
<path fill-rule="evenodd" clip-rule="evenodd" d="M417.479 90.6921C417.866 91.101 418.169 91.5983 418.322 92.1811C418.813 94.0419 417.703 95.9476 415.842 96.4385C415.26 96.5921 414.678 96.5741 414.131 96.4396C414.979 97.3377 416.266 97.768 417.545 97.4306C419.406 96.9397 420.516 95.0339 420.025 93.1732C419.688 91.8955 418.678 90.9865 417.479 90.6921Z" fill="#2764AF"/>
<path d="M417.723 98.1051C415.494 98.6931 413.202 97.3582 412.614 95.1291C412.026 92.9 413.361 90.6083 415.59 90.0202C417.819 89.4322 420.111 90.7671 420.699 92.9962C421.287 95.2254 419.952 97.517 417.723 98.1051ZM415.945 91.3678C414.459 91.7598 413.569 93.2881 413.961 94.7737C414.353 96.2593 415.881 97.1498 417.367 96.7577C418.854 96.3654 419.743 94.8374 419.351 93.3518C418.959 91.8662 417.432 90.9755 415.945 91.3678Z" fill="white"/>
<path d="M427.816 41.3956C426.223 39.7905 423.857 39.0749 420.887 39.2236C420.928 39.3465 420.988 39.4587 421.022 39.5849C421.111 39.9218 421.158 40.2599 421.182 40.5969C423.295 40.5194 425.385 40.9237 426.827 42.3773C432.147 47.7381 424.864 63.9563 410.924 77.7916C402.36 86.2872 392.716 92.5555 385.126 94.5579C382.014 95.379 377.798 95.8479 375.388 93.4195C370.068 88.0587 377.351 71.8405 391.291 58.0054C397.609 51.7376 404.514 46.6885 410.75 43.6643C410.539 43.2779 410.359 42.8722 410.242 42.4288C410.237 42.4091 410.237 42.3893 410.232 42.3695C403.827 45.4638 396.756 50.6212 390.309 57.0172C375.334 71.8784 368.345 88.3007 374.399 94.4011C376.677 96.6967 380.51 97.2169 385.482 95.9053C393.297 93.8434 403.176 87.4415 411.905 78.7797C426.881 63.917 433.869 47.4962 427.816 41.3956Z" fill="white"/>
<path d="M416.521 44.3763C418.381 43.8854 419.492 41.9794 419.001 40.1189C418.51 38.2584 416.604 37.1481 414.743 37.6389C412.883 38.1297 411.773 40.0358 412.263 41.8963C412.754 43.7567 414.66 44.8671 416.521 44.3763Z" fill="#FFE57F"/>
<path fill-rule="evenodd" clip-rule="evenodd" d="M416.455 37.6367C416.842 38.0456 417.145 38.5428 417.298 39.1257C417.789 40.9865 416.679 42.8922 414.818 43.3831C414.237 43.5365 413.654 43.5187 413.107 43.3842C413.955 44.2823 415.242 44.7126 416.521 44.3751C418.382 43.8843 419.492 41.9785 419.001 40.1178C418.664 38.84 417.655 37.9311 416.455 37.6367Z" fill="#FFD740"/>
<path d="M416.698 45.0487C414.469 45.6367 412.177 44.3018 411.589 42.0727C411.001 39.8435 412.336 37.5519 414.565 36.9638C416.794 36.3758 419.086 37.7107 419.674 39.9398C420.262 42.169 418.927 44.4606 416.698 45.0487ZM414.92 38.3113C413.433 38.7036 412.544 40.2316 412.936 41.7172C413.328 43.2028 414.855 44.0935 416.342 43.7012C417.829 43.3089 418.718 41.7809 418.326 40.2953C417.934 38.8097 416.407 37.919 414.92 38.3113Z" fill="white"/>
<path d="M403.418 76.6552C408.255 75.3791 411.142 70.4233 409.866 65.5861C408.59 60.7489 403.634 57.862 398.797 59.1381C393.96 60.4142 391.073 65.3701 392.349 70.2073C393.625 75.0445 398.581 77.9313 403.418 76.6552Z" fill="#7AB042"/>
<path fill-rule="evenodd" clip-rule="evenodd" d="M403.851 59.2719C405.073 60.4017 406.005 61.8746 406.46 63.6023C407.736 68.4395 404.848 73.3957 400.012 74.6714C398.285 75.1272 396.544 75.0431 394.959 74.538C397.157 76.569 400.31 77.4753 403.418 76.6554C408.254 75.3796 411.142 70.4234 409.866 65.5863C409.046 62.4783 406.703 60.1832 403.851 59.2719Z" fill="#659C42"/>
<path d="M403.596 77.3298C398.395 78.7019 393.047 75.5863 391.675 70.3859C390.303 65.1855 393.418 59.8374 398.619 58.4653C403.82 57.0932 409.168 60.2088 410.54 65.4092C411.912 70.6096 408.797 75.9577 403.596 77.3298ZM398.975 59.8128C394.517 60.9889 391.847 65.5722 393.023 70.0305C394.199 74.4887 398.782 77.1585 403.24 75.9824C407.699 74.8063 410.369 70.223 409.192 65.7648C408.016 61.3065 403.433 58.6367 398.975 59.8128Z" fill="white"/>
<path d="M398.235 67.9352C399.351 67.6407 400.017 66.4971 399.723 65.3808C399.428 64.2645 398.284 63.5983 397.168 63.8928C396.052 64.1873 395.386 65.3309 395.68 66.4472C395.975 67.5635 397.118 68.2296 398.235 67.9352Z" fill="white"/>
<path d="M96.8737 211.247C98.9111 212.221 100.722 213.765 102.061 215.755C105.12 220.347 106.882 235.467 107.052 237.152C107.115 237.817 106.792 238.483 106.217 238.87C105.643 239.257 104.904 239.305 104.274 238.99C102.814 238.206 89.5114 230.855 86.4083 226.294C85.0687 224.304 84.3192 222.045 84.1832 219.791L90.5065 215.534L96.8737 211.247Z" fill="#FFE470"/>
<path d="M90.5095 215.534L96.8765 211.247C98.9139 212.221 100.724 213.765 102.064 215.755C105.123 220.346 106.885 235.467 107.055 237.151C107.117 237.816 106.795 238.483 106.22 238.87L90.5095 215.534Z" fill="#FFD400"/>
<path d="M92.6268 215.295L96.8611 221.537C97.1218 221.972 97.2129 222.489 97.1262 222.933C97.0322 223.414 96.7534 223.859 96.3481 224.164L96.3111 224.157C95.4341 224.715 94.2872 224.491 93.7217 223.651L89.5314 217.379C88.9288 216.532 89.1527 215.385 90.0299 214.827L90.0371 214.79C90.8846 214.187 92.0684 214.419 92.6268 215.295Z" fill="#FFD400"/>
<path d="M90.0376 214.789C90.8849 214.187 92.0687 214.418 92.6272 215.295L96.8614 221.537C97.1222 221.972 97.2132 222.489 97.1265 222.933C97.0326 223.414 96.7538 223.859 96.3485 224.164L96.3115 224.156L90.0302 214.826L90.0376 214.789Z" fill="#FDBF00"/>
<path d="M65.9268 209.248C63.3614 222.385 73.658 228.7 73.9641 229.105C74.4804 229.506 75.1684 229.612 75.7816 229.381C76.3945 229.152 76.845 228.621 76.9705 227.978C79.1245 220.517 80.4684 215.862 80.3609 216.234L66.3714 206.971L65.9266 209.248L65.9268 209.248Z" fill="#F76663"/>
<path d="M94.9455 206.396C95.3299 206.441 107.736 207.901 106.932 207.806C108.309 208.075 109.486 206.795 109.107 205.445C108.847 205.009 106.792 193.077 93.7332 190.527L91.4554 190.082L94.9455 206.396Z" fill="#ED3431"/>
<path d="M97.3406 205.31C97.9566 207.466 98.5356 209.615 99.0992 211.645C99.3318 212.42 99.0177 213.242 98.3471 213.726L85.8778 222.12C85.1777 222.56 84.2979 222.542 83.6673 222.034C81.9982 220.748 80.2254 219.403 78.4598 218.022C77.4286 217.206 80.8192 213.413 79.751 212.59L91.8223 204.463C92.1829 205.763 96.9727 204.048 97.3406 205.31Z" fill="#F76663"/>
<path d="M97.3399 205.31C97.9559 207.465 98.5349 209.614 99.0985 211.644C99.3311 212.419 99.017 213.241 98.3464 213.725L92.1119 217.922L85.8081 208.511L91.8217 204.462C92.1822 205.762 96.972 204.047 97.3399 205.31Z" fill="#ED3431"/>
<path d="M73.9359 169.21C79.9739 172.117 84.5676 176.125 88.1336 181.661C92.3246 188.124 95.2141 197.714 97.3404 205.311L87.922 211.651L78.4596 218.022C72.2208 213.194 64.3862 206.901 60.0111 200.594C56.2241 195.207 54.239 189.443 53.8168 182.755L55.9152 179.286C59.148 179.841 62.3234 179.117 64.8436 177.42C67.364 175.723 69.2297 173.053 69.9321 169.849L73.9359 169.21Z" fill="#ECECF1"/>
<path d="M73.9372 169.208C79.9752 172.116 84.5689 176.123 88.1349 181.659C92.3259 188.123 95.2154 197.712 97.3417 205.309L87.9233 211.65L64.845 177.418C67.3654 175.721 69.2311 173.051 69.9335 169.847L73.9372 169.208Z" fill="#E2E2E7"/>
<path d="M68.9517 183.522C64.6628 186.409 63.5141 192.291 66.4016 196.58C69.3263 200.877 75.1342 202.011 79.4604 199.13L79.4973 199.138C83.7863 196.25 84.935 190.368 82.0475 186.079C79.13 181.746 73.2853 180.604 68.9517 183.522Z" fill="#76E2F8"/>
<path d="M73.9362 169.21C73.8784 169.506 73.6753 170.35 73.6175 170.646C72.7128 174.886 70.2744 178.326 66.958 180.559C63.6417 182.792 59.5359 183.757 55.2675 183C54.9714 182.942 54.1134 182.813 53.8175 182.755C53.4745 177.234 54.2901 171.288 55.5668 165.93C55.6607 165.449 55.9325 165.041 56.3304 164.773C56.7284 164.505 57.2085 164.407 57.6895 164.501C63.1333 165.334 68.9432 166.852 73.9362 169.21Z" fill="#F76663"/>
<path d="M84.1952 202.819C84.7978 203.666 84.5667 204.85 83.6895 205.408C82.8422 206.011 81.6583 205.78 81.0999 204.903C80.4975 204.055 80.7286 202.872 81.6056 202.313C82.4529 201.71 83.6369 201.942 84.1952 202.819Z" fill="#5A5A5A"/>
<path d="M73.9357 169.21C73.8779 169.506 73.6747 170.35 73.617 170.645C72.7123 174.885 70.2738 178.326 66.9575 180.559L56.3298 164.773C56.7278 164.505 57.2079 164.407 57.6889 164.501C63.1328 165.334 68.9426 166.852 73.9357 169.21Z" fill="#ED3431"/>
<path d="M82.0461 186.08C84.9336 190.369 83.7849 196.251 79.4959 199.138L79.4589 199.131L68.9503 183.523C73.2839 180.605 79.1286 181.746 82.0461 186.08Z" fill="#25D9F8"/>
<path d="M84.1946 202.818C84.7972 203.666 84.5661 204.849 83.6889 205.408L81.6051 202.313C82.4523 201.71 83.6363 201.941 84.1946 202.818Z" fill="#444444"/>
<path d="M522.262 105.979C521.434 105.619 520.559 105.299 519.697 105.015C508.861 101.641 496.968 106.425 491.608 116.273C488.48 121.977 487.963 128.329 489.539 134.039C491.704 141.862 491.423 150.145 488.193 157.57L487.069 160.156L506.623 168.662L507.38 166.921C510.744 159.188 516.727 152.93 524.229 148.977C528.819 146.558 532.627 142.612 534.854 137.491C540.097 125.368 534.471 111.289 522.262 105.979Z" fill="#FAAC4B"/>
<path d="M531.766 113.34C535.138 119.587 535.728 127.213 532.699 134.177C530.471 139.298 526.674 143.219 522.073 145.663C514.597 149.628 508.614 155.886 505.25 163.619L504.493 165.36L487.939 158.159L487.07 160.156L506.625 168.662L507.382 166.921C510.746 159.188 516.728 152.93 524.205 148.965C528.806 146.521 532.603 142.6 534.83 137.479C538.428 129.209 536.942 120.037 531.766 113.34Z" fill="#BB8038"/>
<path d="M520.086 135.238C519.051 134.788 518.812 133.923 518.643 133.392C518.518 132.973 518.492 132.961 518.441 132.939C518.389 132.916 518.363 132.905 517.971 133.1C517.493 133.349 516.672 133.753 515.637 133.303C514.602 132.853 514.364 131.987 514.194 131.457C514.069 131.037 514.043 131.026 513.992 131.004C513.94 130.981 513.914 130.97 513.522 131.165C513.044 131.414 512.223 131.817 511.188 131.367C510.154 130.917 509.915 130.052 509.745 129.522C509.62 129.102 509.595 129.091 509.543 129.068C509.491 129.046 509.465 129.035 509.073 129.229C508.596 129.478 507.774 129.882 506.739 129.432C505.705 128.982 505.466 128.117 505.297 127.587C505.172 127.167 505.146 127.156 505.094 127.133C505.042 127.111 505.016 127.099 504.624 127.294C504.147 127.543 503.325 127.947 502.29 127.497C501.256 127.047 501.017 126.182 500.848 125.651C500.723 125.232 500.697 125.22 500.645 125.198C500.102 124.962 499.826 124.324 500.071 123.761C500.305 123.223 500.945 122.953 501.514 123.201C502.549 123.651 502.787 124.516 502.957 125.046C503.082 125.466 503.107 125.477 503.159 125.5C503.211 125.522 503.237 125.534 503.629 125.339C504.107 125.09 504.928 124.686 505.963 125.136C506.997 125.586 507.236 126.451 507.405 126.982C507.53 127.401 507.556 127.413 507.608 127.435C507.66 127.458 507.686 127.469 508.078 127.274C508.555 127.025 509.377 126.621 510.412 127.071C511.446 127.521 511.685 128.386 511.854 128.917C511.979 129.336 512.005 129.348 512.057 129.37C512.109 129.393 512.135 129.404 512.527 129.209C513.004 128.96 513.826 128.556 514.861 129.006C515.895 129.456 516.134 130.322 516.303 130.852C516.428 131.272 516.454 131.283 516.506 131.305C516.558 131.328 516.583 131.339 516.976 131.144C517.453 130.895 518.275 130.492 519.309 130.942C520.344 131.392 520.583 132.257 520.752 132.787C520.877 133.207 520.903 133.218 520.955 133.241C521.006 133.263 521.032 133.274 521.425 133.08C521.902 132.831 522.724 132.427 523.758 132.877C524.301 133.113 524.578 133.751 524.333 134.314C524.099 134.852 523.459 135.121 522.89 134.874C522.838 134.851 522.812 134.84 522.42 135.035C521.905 135.298 521.095 135.677 520.086 135.238Z" fill="#FFFDF2"/>
<path d="M494.509 165.676C493.966 165.44 493.689 164.802 493.934 164.238L502.7 144.087L499.181 123.678C499.072 123.082 499.468 122.524 500.067 122.419C500.667 122.315 501.232 122.713 501.342 123.308L504.959 144.339L495.937 165.079C495.681 165.668 495.052 165.912 494.509 165.676Z" fill="#BB8038"/>
<path d="M497.485 166.97C496.942 166.734 496.666 166.096 496.911 165.533L505.932 144.793L523.784 133.101C524.295 132.775 524.971 132.917 525.303 133.426C525.635 133.936 525.497 134.607 524.986 134.933L507.657 146.274L498.891 166.425C498.683 166.974 498.054 167.218 497.485 166.97Z" fill="#BB8038"/>
<path d="M495.027 177.077L488.794 174.366C485.586 172.971 484.113 169.285 485.495 166.11L488.034 160.272C488.212 159.862 488.693 159.676 489.107 159.856L505.428 166.955C505.842 167.135 506.034 167.614 505.855 168.024L503.316 173.862C501.961 177.048 498.235 178.472 495.027 177.077Z" fill="#4D8C8C"/>
<path d="M503.447 176.812L483.221 168.014C482.703 167.789 482.468 167.199 482.69 166.687L488.527 153.27C488.749 152.758 489.341 152.528 489.859 152.753L510.086 161.552C510.603 161.777 510.839 162.366 510.616 162.878L504.78 176.295C504.583 176.819 503.965 177.037 503.447 176.812Z" fill="#99BDBE"/>
<path d="M510.06 164.159L487.971 154.55L486.835 157.162L508.924 166.77L510.06 164.159Z" fill="#7FACAD"/>
<path d="M509.412 165.642L487.348 156.045C486.624 155.73 486.285 154.882 486.597 154.165C486.909 153.449 487.76 153.118 488.484 153.433L510.548 163.031C511.272 163.346 511.611 164.193 511.299 164.91C510.987 165.627 510.136 165.957 509.412 165.642Z" fill="#CCDEDE"/>
<path d="M507.43 170.2L485.367 160.603C484.643 160.288 484.304 159.44 484.616 158.723C484.928 158.006 485.779 157.676 486.503 157.991L508.566 167.589C509.291 167.904 509.629 168.751 509.317 169.468C509.006 170.185 508.155 170.515 507.43 170.2Z" fill="#CCDEDE"/>
<path d="M506.083 173.299L483.994 163.691L482.858 166.302L504.947 175.911L506.083 173.299Z" fill="#7FACAD"/>
<path d="M505.435 174.785L483.372 165.187C482.648 164.872 482.309 164.025 482.621 163.308C482.933 162.591 483.784 162.261 484.508 162.576L506.571 172.173C507.296 172.488 507.634 173.336 507.323 174.053C507.011 174.77 506.16 175.1 505.435 174.785Z" fill="#CCDEDE"/>
<path d="M215.943 193.311V287.494L297.494 334.545L379.005 287.494V193.311L297.494 146.22L215.943 193.311Z" fill="#FAAC48"/>
<path d="M364.708 227.011H355.152V260.834H347.854V227.011H338.24V220.292H364.708V227.011Z" fill="#472607"/>
<path d="M313.406 220.702C314.989 220.355 316.688 220.104 318.502 219.949C320.317 219.795 321.881 219.718 323.194 219.718C324.854 219.718 326.476 219.891 328.059 220.239C329.642 220.548 331.032 221.146 332.229 222.034C333.464 222.884 334.449 224.061 335.182 225.567C335.955 227.034 336.341 228.907 336.341 231.185C336.341 234.467 335.723 237.151 334.487 239.236C333.291 241.282 331.63 242.691 329.507 243.463L331.823 245.317L339.295 260.838H330.897L323.831 244.853L320.703 244.101V260.838H313.406V220.702ZM320.703 239.12H323.194C325.008 239.12 326.379 238.579 327.306 237.498C328.232 236.378 328.696 234.66 328.696 232.343C328.696 230.606 328.31 229.197 327.537 228.115C326.765 226.996 325.549 226.436 323.889 226.436C323.271 226.436 322.672 226.455 322.093 226.494C321.514 226.532 321.051 226.61 320.703 226.725V239.12Z" fill="#472607"/>
<path d="M288.52 220.292H308.79V227.011H295.817V236.973H307.574V243.691H295.817V254.116H309.022V260.834H288.52V220.292Z" fill="#472607"/>
<path d="M285.042 259.213C284.038 260.062 282.686 260.68 280.988 261.066C279.327 261.452 277.667 261.645 276.007 261.645C273.922 261.645 271.972 261.298 270.157 260.603C268.381 259.869 266.817 258.672 265.466 257.012C264.114 255.352 263.053 253.17 262.28 250.467C261.508 247.764 261.122 244.444 261.122 240.506C261.122 236.413 261.547 233.015 262.396 230.312C263.284 227.609 264.423 225.466 265.813 223.883C267.242 222.262 268.864 221.123 270.678 220.466C272.493 219.81 274.327 219.482 276.18 219.482C278.072 219.482 279.713 219.636 281.103 219.945C282.532 220.254 283.69 220.601 284.578 220.988L283.13 227.416C282.397 227.03 281.528 226.741 280.524 226.548C279.559 226.316 278.401 226.2 277.049 226.2C274.385 226.2 272.339 227.358 270.91 229.675C269.481 231.992 268.767 235.621 268.767 240.563C268.767 242.687 268.922 244.637 269.23 246.413C269.578 248.151 270.099 249.656 270.794 250.931C271.528 252.205 272.435 253.189 273.516 253.884C274.636 254.579 275.968 254.927 277.513 254.927C278.864 254.927 280.022 254.753 280.988 254.406C281.953 254.019 282.822 253.575 283.594 253.073L285.042 259.213Z" fill="#472607"/>
<path d="M239.692 240.913L237.028 233.789H236.738L237.665 240.797V260.837H230.773V220.005H236.391L248.032 240.392L250.522 247.4H250.87L249.943 240.508V220.295H256.835V261.126H251.217L239.692 240.913Z" fill="#472607"/>
<path d="M501.931 357.711C501.952 357.05 502.465 356.541 503.092 356.56L509.797 356.772C510.423 356.791 510.904 357.332 510.883 357.993C510.863 358.655 510.349 359.164 509.722 359.144L502.999 358.933C502.391 358.914 501.91 358.373 501.931 357.711Z" fill="#C87085"/>
<path d="M456.964 361.045C456.985 360.384 457.499 359.875 458.125 359.894L464.848 360.106C465.475 360.126 465.956 360.666 465.935 361.328C465.914 361.989 465.4 362.498 464.774 362.479L458.05 362.267C457.424 362.228 456.944 361.687 456.964 361.045Z" fill="#C87085"/>
<path d="M476.372 385.328L476.596 378.23C476.617 377.568 477.131 377.059 477.757 377.079C478.383 377.098 478.864 377.639 478.843 378.3L478.62 385.399C478.599 386.06 478.085 386.57 477.459 386.55C476.851 386.531 476.352 385.99 476.372 385.328Z" fill="#C87085"/>
<path d="M484.584 338.222L484.808 331.123C484.829 330.462 485.343 329.952 485.969 329.972C486.595 329.992 487.076 330.532 487.055 331.194L486.832 338.292C486.811 338.954 486.297 339.463 485.671 339.443C485.063 339.424 484.564 338.883 484.584 338.222Z" fill="#C87085"/>
<path d="M497.808 345.744C497.818 345.433 497.938 345.125 498.166 344.918L502.791 340.333C503.247 339.9 503.966 339.922 504.375 340.402C504.784 340.882 504.761 341.602 504.323 342.056L499.698 346.641C499.241 347.094 498.541 347.072 498.114 346.591C497.918 346.351 497.798 346.055 497.808 345.744Z" fill="#C87085"/>
<path d="M494.685 374.07C494.706 373.409 495.219 372.9 495.846 372.919C496.141 372.929 496.432 373.055 496.627 373.294L500.954 378.161C501.382 378.623 501.377 379.382 500.92 379.834C500.482 380.288 499.763 380.285 499.335 379.804C499.317 379.803 499.318 379.784 499.318 379.784L494.99 374.917C494.776 374.677 494.675 374.382 494.685 374.07Z" fill="#C87085"/>
<path d="M466.587 340.031C466.608 339.369 467.121 338.86 467.748 338.88C468.043 338.889 468.334 339.015 468.529 339.255L471.77 342.9C472.179 343.38 472.155 344.138 471.699 344.572C471.243 345.005 470.561 344.984 470.133 344.523L466.892 340.877C466.697 340.638 466.577 340.342 466.587 340.031Z" fill="#C87085"/>
<path d="M459.564 349.272C459.569 349.116 459.592 348.981 459.652 348.827C459.892 348.231 460.564 347.96 461.128 348.212L466.653 350.761C467.217 351.012 467.471 351.721 467.231 352.317C466.991 352.913 466.319 353.183 465.755 352.932L460.247 350.403C459.811 350.214 459.549 349.758 459.564 349.272Z" fill="#C87085"/>
<path d="M460.844 380.111C460.854 379.799 460.974 379.492 461.202 379.285L464.666 375.851C465.122 375.417 465.841 375.44 466.25 375.92C466.659 376.4 466.636 377.12 466.198 377.573L462.734 381.007C462.277 381.46 461.577 381.438 461.15 380.957C460.936 380.717 460.835 380.422 460.844 380.111Z" fill="#C87085"/>
<path d="M458.895 370.567C458.912 370.023 459.277 369.567 459.778 369.447L464.292 368.401C464.904 368.284 465.481 368.692 465.608 369.338C465.718 369.965 465.349 370.556 464.772 370.714L460.259 371.759C459.646 371.895 459.05 371.487 458.922 370.86C458.907 370.763 458.892 370.665 458.895 370.567Z" fill="#C87085"/>
<path d="M467.494 382.675C467.5 382.5 467.543 382.307 467.621 382.153L470.017 377.498C470.312 376.923 471.001 376.711 471.544 377.021C472.088 377.33 472.286 378.056 471.991 378.631L469.595 383.286C469.301 383.861 468.63 384.074 468.068 383.764C467.706 383.558 467.479 383.142 467.494 382.675Z" fill="#C87085"/>
<path d="M485.567 378.513C485.588 377.851 486.102 377.342 486.728 377.362C487.152 377.375 487.53 377.64 487.702 378.054L489.8 382.851C490.058 383.443 489.815 384.156 489.253 384.43C488.691 384.704 488.017 384.449 487.759 383.857L485.661 379.041C485.592 378.883 485.561 378.707 485.567 378.513Z" fill="#C87085"/>
<path d="M500.471 368.332C500.492 367.671 501.006 367.161 501.632 367.181C501.835 367.188 502.036 367.252 502.198 367.374L507.686 371.09C508.191 371.456 508.334 372.181 507.985 372.735C507.655 373.27 506.968 373.423 506.462 373.076L500.974 369.36C500.649 369.136 500.458 368.741 500.471 368.332Z" fill="#C87085"/>
<path d="M501.031 350.577C501.046 350.091 501.336 349.671 501.765 349.51L507.44 347.313C508.018 347.098 508.672 347.41 508.874 348.02C509.077 348.63 508.778 349.322 508.2 349.537L502.525 351.733C501.947 351.949 501.293 351.636 501.091 351.026C501.04 350.888 501.026 350.732 501.031 350.577Z" fill="#C87085"/>
<path d="M493.481 340.878C493.485 340.742 493.507 340.626 493.547 340.51L496.018 333.482C496.258 332.886 496.913 332.595 497.477 332.827C498.023 333.059 498.298 333.69 498.113 334.288L495.643 341.316C495.42 341.932 494.784 342.243 494.201 342.01C493.764 341.841 493.465 341.384 493.481 340.878Z" fill="#C87085"/>
<path d="M473.533 333.143C473.554 332.482 474.068 331.972 474.694 331.992C475.081 332.004 475.443 332.23 475.634 332.606L478.8 338.624C479.096 339.198 478.889 339.911 478.344 340.225C477.819 340.52 477.143 340.324 476.846 339.789L473.68 333.771C473.575 333.573 473.527 333.357 473.533 333.143Z" fill="#C87085"/>
<path d="M475.781 379.49C477.072 379.472 478.455 379.476 479.91 379.522C490.576 379.858 503.683 372.347 503.992 362.525L504.033 361.222C504.254 355.973 504.462 350.528 497.559 342.543C494.419 339.174 490.128 337.267 485.647 337.263C480.532 336.926 475.467 338.5 471.327 341.718C466.987 346.039 463.811 356.744 463.445 368.355C463.311 372.634 463.997 375.439 465.583 377.183C467.813 379.57 471.336 379.525 475.781 379.49Z" fill="#ED3431"/>
<path d="M477.34 354.58C477.196 359.156 480.592 362.976 484.926 363.112C489.26 363.249 492.89 359.65 493.034 355.074C493.178 350.498 489.782 346.678 485.448 346.542C481.114 346.406 477.484 350.004 477.34 354.58Z" fill="#830D2A"/>
<path d="M470.559 356.721C470.58 356.06 471.094 355.55 471.72 355.57C472.346 355.59 472.827 356.131 472.806 356.792C472.776 357.745 473.36 358.542 474.336 359.76C476.014 361.507 476.971 363.892 476.985 366.385C476.964 367.046 476.451 367.556 475.824 367.536C475.198 367.516 474.717 366.975 474.738 366.314C474.687 364.405 473.915 362.589 472.591 361.282C471.375 360.095 470.651 358.476 470.559 356.721Z" fill="white" fill-opacity="0.5"/>
<path d="M490.414 366.824C490.629 364.086 492.308 361.705 494.737 360.692C496.43 359.635 497.392 358.965 497.435 357.584C497.456 356.922 497.97 356.413 498.596 356.433C499.222 356.452 499.703 356.993 499.682 357.654C499.595 360.416 497.621 361.639 495.89 362.733C494.197 363.789 492.73 364.717 492.661 366.914C492.64 367.576 492.126 368.085 491.5 368.065C490.892 368.027 490.394 367.466 490.414 366.824Z" fill="white" fill-opacity="0.5"/>
<path d="M294.233 402.944L290.122 415.591L299.008 425.04L304.416 423.871L295.529 414.422L299.641 401.775L294.233 402.944Z" fill="#2865B0"/>
<path opacity="0.15" d="M295.312 414.537L291.756 410.57L290.121 415.59L293.589 419.256L295.312 414.537Z" fill="black"/>
<path d="M286.091 416.53L280.175 433.822L287.783 432.178L293.699 414.886L281.062 401.078L273.454 402.722L286.091 416.53Z" fill="url(#paint0_linear_5425_10221)"/>
<defs>
<linearGradient id="paint0_linear_5425_10221" x1="275.434" y1="427.821" x2="297.482" y2="387.9" gradientUnits="userSpaceOnUse">
<stop stop-color="#FBAC4C"/>
<stop offset="0.0328557" stop-color="#F9A44A"/>
<stop offset="0.0892649" stop-color="#F69144"/>
<stop offset="0.1624" stop-color="#F2713B"/>
<stop offset="0.2486" stop-color="#ED3532"/>
<stop offset="0.3398" stop-color="#D42D34"/>
<stop offset="0.5175" stop-color="#A41D36"/>
<stop offset="1" stop-color="#A41D36"/>
</linearGradient>
</defs>
</svg>
